<?xml version="1.0" encoding="iso-8859-1"?>
<!-- Generator: Adobe Illustrator 19.0.0, SVG Export Plug-In . SVG Version: 6.00 Build 0)  -->
<svg version="1.1" id="Capa_1" xmlns="http://www.w3.org/2000/svg" xmlns:xlink="http://www.w3.org/1999/xlink" x="0px" y="0px"
	 viewBox="0 0 508 508" style="enable-background:new 0 0 508 508;" xml:space="preserve">
<g>
	<g>
		<g>
			<path d="M367.2,296.6c13.6-99.1-18.7-202.1-92.4-275.9L254.1,0l-20.7,20.7c-73.8,73.8-106.1,176.8-92.5,275.9
				c-33.3,31.3-52.4,74.9-52.4,120.5c0,12.4,1.5,25.1,4.5,38l5.9,25l9.8-23.7c11.8-28.5,32.2-53.1,57.8-70.4
				c4.1,9.1,8.6,18.1,13.7,27l2.4,4.2h142.8l2.4-4.2c5-8.8,9.5-17.8,13.6-26.9c25.6,17.3,46,41.9,57.8,70.4l9.9,23.5l5.9-25
				c3-12.8,4.5-25.6,4.5-38C419.6,371.5,400.5,327.8,367.2,296.6z M245.2,32.4l9-9l9,9C279.7,48.9,294,67,306.1,86.2H202.3
				C214.4,67,228.6,48.9,245.2,32.4z M105.5,426.5c-0.2-3.2-0.3-6.3-0.3-9.4c0-37.2,14.1-73,39.2-100.4c0.3,1.4,0.7,2.9,1,4.3
				c0.5,2.4,1,4.8,1.6,7.1c0.4,1.9,0.9,3.7,1.4,5.6c0.7,2.7,1.4,5.3,2.2,8c0.5,1.7,1,3.4,1.5,5.1c0.8,2.7,1.7,5.4,2.6,8.1
				c0.6,1.7,1.1,3.4,1.7,5.1c0.9,2.6,1.8,5.1,2.8,7.7c0.2,0.7,0.5,1.6,0.9,2.6C137.9,384.6,119.2,404,105.5,426.5z M346.8,317.5
				c-1.2,5.4-2.5,10.8-4,16.2c-0.3,1.1-0.6,2.2-0.9,3.4c-1.5,5.1-3,10.2-4.7,15.2c-0.1,0.3-0.2,0.7-0.3,1c-1.8,5.3-3.9,10.6-6,15.8
				c-4.5,10.6-9.4,21.1-15,31.4H192.4c-5.6-10.3-10.6-20.8-14.9-31.4c-2.1-5.2-4.1-10.5-6-15.8c-0.1-0.4-0.2-0.8-0.4-1.1
				c-1.7-5-3.2-10-4.7-15.1c-0.3-1.2-0.7-2.3-1-3.5c-1.4-5.3-2.8-10.6-4-16c-0.2-0.9-0.4-1.8-0.5-2.8c-0.9-4.4-1.7-8.7-2.4-13.1
				c-11-67.9,0.9-138.2,34-198.9h123.2c33.1,60.7,44.9,130.8,34,198.7c-0.7,4.6-1.6,9.2-2.5,13.8C347,316,346.9,316.8,346.8,317.5z
				 M402.7,426.4c-13.7-22.5-32.4-41.8-54.6-56.2c0.4-0.9,0.7-1.9,1-2.8c0.9-2.5,1.9-5,2.7-7.5c0.6-1.8,1.3-3.6,1.9-5.5
				c0.8-2.5,1.6-5,2.4-7.5c0.6-1.9,1.2-3.8,1.7-5.7c0.7-2.4,1.3-4.8,1.9-7.2c0.5-2.1,1.1-4.2,1.6-6.3c0.5-2.2,1-4.3,1.5-6.5
				c0.3-1.6,0.7-3.1,1-4.6C388.8,344,403,379.8,403,417C403,420.1,402.9,423.3,402.7,426.4z"/>
			<path d="M254.1,135.8c-27.4,0-49.6,22.3-49.6,49.6s22.2,49.6,49.6,49.6c27.4,0,49.6-22.3,49.6-49.6
				C303.7,158.1,281.5,135.8,254.1,135.8z M254.1,218.5c-18.2,0-33.1-14.8-33.1-33.1c0-18.3,14.8-33.1,33.1-33.1
				c18.2,0,33.1,14.8,33.1,33.1C287.2,203.7,272.3,218.5,254.1,218.5z"/>
			<rect x="245.8" y="276.4" width="16.5" height="16.5"/>
			<rect x="245.8" y="309.5" width="16.5" height="16.5"/>
			<rect x="245.8" y="342.6" width="16.5" height="16.5"/>
			<rect x="245.8" y="433.6" width="16.5" height="49.6"/>
			<rect x="196.2" y="458.4" width="16.5" height="49.6"/>
			<rect x="295.5" y="458.4" width="16.5" height="49.6"/>
		</g>
	</g>
</g>
<g>
</g>
<g>
</g>
<g>
</g>
<g>
</g>
<g>
</g>
<g>
</g>
<g>
</g>
<g>
</g>
<g>
</g>
<g>
</g>
<g>
</g>
<g>
</g>
<g>
</g>
<g>
</g>
<g>
</g>
</svg>
