<?xml version="1.0" encoding="iso-8859-1"?>
<!-- Generator: Adobe Illustrator 19.0.0, SVG Export Plug-In . SVG Version: 6.00 Build 0)  -->
<svg version="1.1" id="Layer_1" xmlns="http://www.w3.org/2000/svg" xmlns:xlink="http://www.w3.org/1999/xlink" x="0px" y="0px"
	 viewBox="0 0 503.064 503.064" style="enable-background:new 0 0 503.064 503.064;" xml:space="preserve">
<g>
	<g>
		<g>
			<path d="M464.664,267.532h-5.416v-264h-416v264H37.8l-37.8,96h35.248v136h272h16h144v-136h35.816L464.664,267.532z
				 M59.248,19.532h384v48h-384V19.532z M59.248,83.532h384v184h-48v-48h-28.384c-2.616-9.448-6.384-18.52-11.264-27.104
				l20.096-20.096l-45.256-45.256l-20.096,20.104c-8.576-4.872-17.648-8.648-27.096-11.264v-28.384h-64v28.384
				c-9.448,2.616-18.52,6.392-27.096,11.264l-20.096-20.104L126.8,172.332l20.096,20.096c-4.88,8.576-8.656,17.656-11.264,27.104
				h-28.384v48h-48V83.532z M23.496,347.532l25.2-64h254.736l-25.6,64H23.496z M307.248,483.532h-256v-120h237.416l18.584-46.464
				V483.532z M304.888,267.532h-107.28c-1.568-5.2-2.36-10.56-2.36-16c0-30.872,25.12-56,56-56s56,25.128,56,56
				C307.248,256.972,306.456,262.332,304.888,267.532z M321.368,267.532c1.2-5.24,1.88-10.584,1.88-16c0-39.704-32.304-72-72-72
				s-72,32.296-72,72c0,5.416,0.68,10.76,1.88,16h-57.88v-32h25.08l1.376-6.288c2.616-11.96,7.328-23.304,14.008-33.72l3.48-5.424
				l-17.768-17.768l22.632-22.632l17.768,17.776l5.424-3.472c10.408-6.68,21.752-11.392,33.712-14.016l6.288-1.376v-25.08h32v25.08
				l6.288,1.376c11.96,2.624,23.304,7.336,33.712,14.016l5.424,3.48l17.768-17.776l22.632,22.632l-17.768,17.768l3.48,5.424
				c6.68,10.416,11.4,21.76,14.008,33.72l1.376,6.28h25.08v32h-56H321.368z M451.248,483.532h-128V317.068l18.584,46.464h109.416
				V483.532z M352.664,347.532l-25.6-64h126.768l25.6,64H352.664z"/>
			<rect x="75.248" y="35.532" width="16" height="16"/>
			<rect x="107.248" y="35.532" width="16" height="16"/>
			<rect x="139.248" y="35.532" width="16" height="16"/>
			<rect x="275.248" y="451.532" width="16" height="16"/>
			<rect x="243.248" y="451.532" width="16" height="16"/>
			<rect x="211.248" y="451.532" width="16" height="16"/>
		</g>
	</g>
</g>
<g>
</g>
<g>
</g>
<g>
</g>
<g>
</g>
<g>
</g>
<g>
</g>
<g>
</g>
<g>
</g>
<g>
</g>
<g>
</g>
<g>
</g>
<g>
</g>
<g>
</g>
<g>
</g>
<g>
</g>
</svg>
