<?xml version="1.0" encoding="iso-8859-1"?>
<!-- Generator: Adobe Illustrator 19.0.0, SVG Export Plug-In . SVG Version: 6.00 Build 0)  -->
<svg version="1.1" id="Capa_1" xmlns="http://www.w3.org/2000/svg" xmlns:xlink="http://www.w3.org/1999/xlink" x="0px" y="0px"
	 viewBox="0 0 512.005 512.005" style="enable-background:new 0 0 512.005 512.005;" xml:space="preserve">
<g>
	<g>
		<g>
			<circle cx="53.336" cy="53.336" r="10.667"/>
			<circle cx="96.003" cy="53.336" r="10.667"/>
			<circle cx="138.669" cy="53.336" r="10.667"/>
			<path d="M224,277.336h-32V160.003c0-5.896-4.771-10.667-10.667-10.667h-64c-5.896,0-10.667,4.771-10.667,10.667v117.333h-32
				c-3.979,0-7.625,2.208-9.458,5.74c-1.833,3.531-1.562,7.781,0.729,11.042l74.667,106.667c1.979,2.854,5.25,4.552,8.729,4.552
				c3.479,0,6.75-1.698,8.729-4.552l74.667-106.667c2.292-3.26,2.563-7.51,0.729-11.042
				C231.625,279.544,227.979,277.336,224,277.336z M149.333,376.065l-54.188-77.396h22.188c5.896,0,10.667-4.771,10.667-10.667
				V170.669h42.667v117.333c0,5.896,4.771,10.667,10.667,10.667h22.188L149.333,376.065z"/>
			<path d="M266.667,192.003h128c5.896,0,10.667-4.771,10.667-10.667c0-5.896-4.771-10.667-10.667-10.667h-128
				c-5.896,0-10.667,4.771-10.667,10.667C256,187.232,260.771,192.003,266.667,192.003z"/>
			<path d="M266.667,256.003h128c5.896,0,10.667-4.771,10.667-10.667c0-5.896-4.771-10.667-10.667-10.667h-128
				c-5.896,0-10.667,4.771-10.667,10.667C256,251.232,260.771,256.003,266.667,256.003z"/>
			<path d="M266.667,320.003h128c5.896,0,10.667-4.771,10.667-10.667c0-5.896-4.771-10.667-10.667-10.667h-128
				c-5.896,0-10.667,4.771-10.667,10.667C256,315.232,260.771,320.003,266.667,320.003z"/>
			<path d="M511.271,422.784c-9.115-23.309-23.785-42.286-41.938-56.186V42.669c0-23.531-19.146-42.667-42.667-42.667h-384
				C19.146,0.003,0,19.138,0,42.669v384c0,23.531,19.146,42.667,42.667,42.667h258.947c23.202,26.853,56.13,42.667,93.053,42.667
				c52.271,0,96.958-31.208,116.604-81.448C512.25,428.055,512.25,425.284,511.271,422.784z M21.333,42.669
				c0-11.76,9.563-21.333,21.333-21.333h384c11.771,0,21.333,9.573,21.333,21.333v42.667H21.333V42.669z M42.667,448.003
				c-11.771,0-21.333-9.573-21.333-21.333v-320H448v246.65c-16.215-7.729-34.246-11.983-53.333-11.983
				c-25.751,0-49.621,7.641-69.604,21.333h-58.396c-5.896,0-10.667,4.771-10.667,10.667c0,5.896,4.771,10.667,10.667,10.667h34.947
				c-9.645,11.161-17.783,24.03-23.551,38.781c-0.979,2.5-0.979,5.271,0,7.771c2.391,6.113,5.18,11.921,8.28,17.448H42.667z
				 M394.667,490.669c-41.938,0-78.021-24.406-95.125-64c17.104-39.594,53.188-64,95.125-64s78.021,24.406,95.125,64
				C472.688,466.263,436.604,490.669,394.667,490.669z"/>
			<path d="M394.667,384.003c-23.521,0-42.667,19.135-42.667,42.667s19.146,42.667,42.667,42.667
				c23.521,0,42.667-19.135,42.667-42.667S418.188,384.003,394.667,384.003z M394.667,448.003c-11.771,0-21.333-9.573-21.333-21.333
				s9.563-21.333,21.333-21.333c11.771,0,21.333,9.573,21.333,21.333S406.438,448.003,394.667,448.003z"/>
		</g>
	</g>
</g>
<g>
</g>
<g>
</g>
<g>
</g>
<g>
</g>
<g>
</g>
<g>
</g>
<g>
</g>
<g>
</g>
<g>
</g>
<g>
</g>
<g>
</g>
<g>
</g>
<g>
</g>
<g>
</g>
<g>
</g>
</svg>
