<?xml version="1.0" encoding="iso-8859-1"?>
<!-- Generator: Adobe Illustrator 19.0.0, SVG Export Plug-In . SVG Version: 6.00 Build 0)  -->
<svg version="1.1" id="Capa_1" xmlns="http://www.w3.org/2000/svg" xmlns:xlink="http://www.w3.org/1999/xlink" x="0px" y="0px"
	 viewBox="0 0 480 480" style="enable-background:new 0 0 480 480;" xml:space="preserve">
<g>
	<g>
		<g>
			<path d="M400,0H208c-22.08,0.026-39.974,17.92-40,40v80h16V72h240v328H184V280h-16v160c0.026,22.08,17.92,39.974,40,40h192
				c22.08-0.026,39.974-17.92,40-40V40C439.974,17.92,422.08,0.026,400,0z M424,440c0,13.255-10.745,24-24,24H208
				c-13.255,0-24-10.745-24-24v-24h240V440z M424,56H184V40c0-13.255,10.745-24,24-24h192c13.255,0,24,10.745,24,24V56z"/>
			<rect x="296" y="432" width="16" height="16"/>
			<path d="M360,256V144c0-0.248-0.12-0.464-0.144-0.712c0-0.418-0.032-0.835-0.096-1.248c-0.064-0.232-0.208-0.416-0.288-0.64
				c-0.328-0.918-0.818-1.768-1.448-2.512c-0.223-0.284-0.467-0.551-0.728-0.8c-0.49-0.414-1.027-0.769-1.6-1.056
				c-0.257-0.168-0.524-0.32-0.8-0.456c-0.921-0.37-1.903-0.565-2.896-0.576H144c-0.988,0.013-1.965,0.211-2.88,0.584
				c-0.292,0.134-0.575,0.287-0.848,0.456c-0.572,0.289-1.109,0.643-1.6,1.056c-0.261,0.249-0.505,0.516-0.728,0.8
				c-0.63,0.743-1.12,1.594-1.448,2.512c-0.08,0.224-0.224,0.408-0.288,0.64c-0.064,0.413-0.096,0.83-0.096,1.248
				c0,0.248-0.144,0.464-0.144,0.712V256c0,4.418,3.582,8,8,8H352C356.418,264,360,260.418,360,256z M320.272,152L248,190.912
				L175.728,152H320.272z M344,248H152v-90.608l92.208,49.648c2.367,1.274,5.217,1.274,7.584,0L344,157.392V248z"/>
			<rect x="80" y="160" width="40" height="16"/>
			<rect x="40" y="192" width="16" height="16"/>
			<rect x="72" y="192" width="48" height="16"/>
			<rect x="40" y="224" width="80" height="16"/>
			<path d="M408,128V96c0-4.418-3.582-8-8-8h-32v16h24v24H408z"/>
		</g>
	</g>
</g>
<g>
</g>
<g>
</g>
<g>
</g>
<g>
</g>
<g>
</g>
<g>
</g>
<g>
</g>
<g>
</g>
<g>
</g>
<g>
</g>
<g>
</g>
<g>
</g>
<g>
</g>
<g>
</g>
<g>
</g>
</svg>
