<?xml version="1.0" encoding="iso-8859-1"?>
<!-- Generator: Adobe Illustrator 19.0.0, SVG Export Plug-In . SVG Version: 6.00 Build 0)  -->
<svg version="1.1" id="Capa_1" xmlns="http://www.w3.org/2000/svg" xmlns:xlink="http://www.w3.org/1999/xlink" x="0px" y="0px"
	 viewBox="0 0 512.001 512.001" style="enable-background:new 0 0 512.001 512.001;" xml:space="preserve">
<g>
	<g>
		<path d="M318.243,439.217c-11.016,0-20,8.984-20,20s8.984,20,20,20s20-8.984,20-20S329.259,439.217,318.243,439.217z"/>
	</g>
</g>
<g>
	<g>
		<path d="M425.605,0H211.399c-23.653,0-42.896,19.244-42.896,42.898v117.059h-115c-0.021,0-0.041,0.003-0.063,0.003
			c-0.215,0.002-0.43,0.018-0.645,0.032c-0.119,0.009-0.241,0.011-0.359,0.023c-0.173,0.019-0.343,0.051-0.514,0.078
			c-0.156,0.025-0.313,0.043-0.467,0.074c-0.07,0.015-0.138,0.037-0.207,0.054c-0.649,0.149-1.273,0.362-1.868,0.632
			c-0.966,0.436-1.868,1.033-2.673,1.782c-0.099,0.091-0.201,0.177-0.296,0.273c-0.099,0.1-0.189,0.209-0.284,0.313
			c-0.132,0.143-0.265,0.286-0.388,0.438c-0.015,0.018-0.031,0.033-0.046,0.052c-0.068,0.085-0.124,0.176-0.189,0.263
			c-0.12,0.16-0.241,0.32-0.352,0.489c-0.081,0.121-0.151,0.246-0.226,0.37c-0.094,0.156-0.188,0.313-0.273,0.474
			c-0.073,0.14-0.138,0.281-0.203,0.423c-0.072,0.152-0.145,0.305-0.208,0.462c-0.063,0.152-0.115,0.308-0.17,0.463
			c-0.053,0.151-0.107,0.303-0.153,0.458c-0.05,0.166-0.089,0.332-0.129,0.5c-0.036,0.148-0.073,0.297-0.103,0.447
			c-0.035,0.184-0.059,0.366-0.084,0.551c-0.02,0.14-0.042,0.278-0.055,0.421c-0.019,0.204-0.024,0.408-0.031,0.612
			c-0.003,0.105-0.016,0.209-0.016,0.314v140c0,5.522,4.477,10,10,10h115v149.145c0,23.654,19.243,42.898,42.896,42.898h214.205
			c23.653,0,42.896-19.244,42.896-42.898c0.003-0.014,0.003,0,0.003-0.014V42.898v0C468.501,19.244,449.258,0,425.605,0z
			 M188.503,42.898c0-12.626,10.271-22.898,22.896-22.898h214.205c12.625,0,22.896,10.272,22.896,22.898v10.576H188.503V42.898z
			 M274.993,179.957l-96.49,77.193l-96.492-77.193H274.993z M63.502,299.956v-12.677h34.188c5.522,0,10-4.478,10-10
			c0-5.522-4.478-10-10-10H63.502v-76.516l108.753,87.002c1.826,1.461,4.037,2.191,6.247,2.191c2.211,0,4.421-0.73,6.247-2.191
			l108.751-87.002v109.193H63.502z M448.501,469.102c0,12.626-10.271,22.898-22.896,22.898H211.399
			c-12.625,0-22.896-10.272-22.896-22.898v-42.664h259.998V469.102z M448.501,406.438H188.503v-86.48h114.998v-0.001
			c5.522,0,10-4.478,10-10v-140c0-0.105-0.013-0.209-0.016-0.314c-0.007-0.204-0.013-0.408-0.031-0.612
			c-0.013-0.143-0.035-0.281-0.055-0.421c-0.024-0.184-0.049-0.367-0.084-0.551c-0.029-0.15-0.066-0.299-0.102-0.447
			c-0.04-0.168-0.079-0.334-0.129-0.5c-0.046-0.155-0.101-0.307-0.153-0.458c-0.055-0.155-0.107-0.311-0.17-0.463
			c-0.064-0.157-0.136-0.31-0.208-0.462c-0.065-0.142-0.13-0.283-0.203-0.423c-0.085-0.161-0.18-0.317-0.273-0.474
			c-0.074-0.124-0.145-0.249-0.225-0.37c-0.11-0.169-0.232-0.329-0.352-0.489c-0.065-0.087-0.121-0.178-0.189-0.263
			c-0.015-0.018-0.031-0.034-0.046-0.052c-0.123-0.151-0.256-0.294-0.388-0.438c-0.095-0.104-0.186-0.213-0.284-0.313
			c-0.095-0.096-0.197-0.182-0.296-0.273c-0.818-0.762-1.738-1.368-2.724-1.807c-0.569-0.255-1.167-0.454-1.787-0.6
			c-0.08-0.018-0.157-0.045-0.237-0.061c-0.15-0.031-0.306-0.049-0.459-0.073c-0.174-0.027-0.347-0.061-0.521-0.079
			c-0.118-0.013-0.238-0.015-0.358-0.022c-0.216-0.016-0.431-0.031-0.646-0.033c-0.021,0-0.041-0.003-0.063-0.003H188.503V73.475
			h259.998V406.438z"/>
	</g>
</g>
<g>
	<g>
		<path d="M353.737,88.479h-0.236c-5.522,0-10,4.477-10,10c0,5.522,4.478,10,10,10h0.236c5.522,0,10-4.478,10-10
			C363.737,92.956,359.259,88.479,353.737,88.479z"/>
	</g>
</g>
<g>
	<g>
		<path d="M423.501,88.475h-41.033c-5.522,0-10,4.478-10,10c0,5.522,4.477,10,10,10h41.033c5.522,0,10-4.478,10-10
			C433.501,92.953,429.023,88.475,423.501,88.475z"/>
	</g>
</g>
<g>
	<g>
		<path d="M127.251,267.279h-0.475c-5.522,0-10,4.478-10,10c0,5.522,4.478,10,10,10h0.475c5.523,0,10-4.478,10-10
			C137.251,271.757,132.773,267.279,127.251,267.279z"/>
	</g>
</g>
<g>
</g>
<g>
</g>
<g>
</g>
<g>
</g>
<g>
</g>
<g>
</g>
<g>
</g>
<g>
</g>
<g>
</g>
<g>
</g>
<g>
</g>
<g>
</g>
<g>
</g>
<g>
</g>
<g>
</g>
</svg>
