<?xml version="1.0" encoding="iso-8859-1"?>
<!-- Generator: Adobe Illustrator 19.0.0, SVG Export Plug-In . SVG Version: 6.00 Build 0)  -->
<svg version="1.1" id="Layer_1" xmlns="http://www.w3.org/2000/svg" xmlns:xlink="http://www.w3.org/1999/xlink" x="0px" y="0px"
	 viewBox="0 0 360.33 360.33" style="enable-background:new 0 0 360.33 360.33;" xml:space="preserve">
<g>
	<g>
		<path d="M0,0.001v360.329h360.329L360.33,0.001H0z M349.986,349.986H10.343V10.345h339.643V349.986z"/>
	</g>
</g>
<g>
	<g>
		<rect x="5.172" y="60.866" width="349.98" height="10.343"/>
	</g>
</g>
<g>
	<g>
		<rect x="317.12" y="30.436" width="15.217" height="10.343"/>
	</g>
</g>
<g>
	<g>
		<rect x="286.68" y="30.436" width="15.216" height="10.343"/>
	</g>
</g>
<g>
	<g>
		<rect x="256.25" y="30.436" width="15.216" height="10.343"/>
	</g>
</g>
<g>
	<g>
		<rect x="35.607" y="30.436" width="182.6" height="10.343"/>
	</g>
</g>
<g>
	<g>
		<polygon points="175.199,109.048 167.885,116.362 203.285,151.761 167.885,187.16 175.199,194.475 217.912,151.761 		"/>
	</g>
</g>
<g>
	<g>
		<polygon points="85.927,116.362 78.613,109.048 35.899,151.761 78.613,194.475 85.927,187.16 50.527,151.761 		"/>
	</g>
</g>
<g>
	<g>
		
			<rect x="57.789" y="152.163" transform="matrix(0.3787 -0.9255 0.9255 0.3787 -68.5146 212.6057)" width="132.618" height="10.343"/>
	</g>
</g>
<g>
	<g>
		<path d="M271.465,190.211c-28.023,0-50.822,22.799-50.822,50.822s22.798,50.822,50.822,50.822s50.822-22.799,50.822-50.822
			C322.287,213.01,299.488,190.211,271.465,190.211z M271.465,281.511c-22.32,0-40.478-18.159-40.478-40.478
			c0-22.32,18.159-40.479,40.478-40.479c22.32,0,40.478,18.159,40.478,40.479S293.785,281.511,271.465,281.511z"/>
	</g>
</g>
<g>
	<g>
		
			<rect x="177.115" y="293.842" transform="matrix(0.7071 -0.7071 0.7071 0.7071 -148.9107 238.5243)" width="72.709" height="10.343"/>
	</g>
</g>
<g>
</g>
<g>
</g>
<g>
</g>
<g>
</g>
<g>
</g>
<g>
</g>
<g>
</g>
<g>
</g>
<g>
</g>
<g>
</g>
<g>
</g>
<g>
</g>
<g>
</g>
<g>
</g>
<g>
</g>
</svg>
