<?xml version="1.0" encoding="iso-8859-1"?>
<!-- Generator: Adobe Illustrator 16.0.0, SVG Export Plug-In . SVG Version: 6.00 Build 0)  -->
<!DOCTYPE svg PUBLIC "-//W3C//DTD SVG 1.1//EN" "http://www.w3.org/Graphics/SVG/1.1/DTD/svg11.dtd">
<svg version="1.1" id="Capa_1" xmlns="http://www.w3.org/2000/svg" xmlns:xlink="http://www.w3.org/1999/xlink" x="0px" y="0px"
	 width="65.797px" height="65.797px" viewBox="0 0 65.797 65.797" style="enable-background:new 0 0 65.797 65.797;"
	 xml:space="preserve">
<g>
	<g>
		<g>
			<path d="M12.182,65.797c-4.089,0-6.868-3.285-6.868-8.174V8.174C5.313,3.285,8.092,0,12.184,0c1.563,0,3.213,0.485,4.87,1.441
				l38.924,24.77c2.877,1.659,4.506,4.052,4.506,6.691c0,2.639-1.62,5.027-4.566,6.729L17.125,64.312
				C15.394,65.312,13.746,65.797,12.182,65.797z M12.184,4.001c-2.563,0-2.87,2.919-2.87,4.174v49.449
				c0,1.255,0.308,4.174,2.868,4.174c0.84,0,1.843-0.313,2.87-0.905l38.788-24.68c1.705-0.986,2.646-2.177,2.646-3.309
				c0-1.135-0.937-2.328-2.573-3.272L14.979,4.862C14.025,4.314,13.024,4.001,12.184,4.001z"/>
		</g>
		<g>
			<g>
				<path d="M32.062,45.854c-0.333,0-0.657-0.164-0.848-0.468c-0.294-0.467-0.153-1.084,0.313-1.379l0.54-0.34
					c0.468-0.293,1.085-0.153,1.379,0.313c0.295,0.467,0.154,1.084-0.313,1.379l-0.54,0.34
					C32.427,45.805,32.244,45.854,32.062,45.854z"/>
			</g>
			<g>
				<path d="M17.413,55.068c-0.333,0-0.657-0.166-0.848-0.469c-0.294-0.467-0.153-1.084,0.314-1.379l11.223-7.06
					c0.467-0.292,1.084-0.154,1.379,0.313c0.294,0.467,0.153,1.086-0.314,1.379l-11.223,7.061
					C17.778,55.018,17.593,55.068,17.413,55.068z"/>
			</g>
		</g>
	</g>
</g>
<g>
</g>
<g>
</g>
<g>
</g>
<g>
</g>
<g>
</g>
<g>
</g>
<g>
</g>
<g>
</g>
<g>
</g>
<g>
</g>
<g>
</g>
<g>
</g>
<g>
</g>
<g>
</g>
<g>
</g>
</svg>
