<?xml version="1.0" encoding="iso-8859-1"?>
<!-- Generator: Adobe Illustrator 19.0.0, SVG Export Plug-In . SVG Version: 6.00 Build 0)  -->
<svg version="1.1" id="Capa_1" xmlns="http://www.w3.org/2000/svg" xmlns:xlink="http://www.w3.org/1999/xlink" x="0px" y="0px"
	 viewBox="0 0 512 512" style="enable-background:new 0 0 512 512;" xml:space="preserve">
<g>
	<g>
		<path d="M156.818,59.565H49.519c-4.511,0-8.167,3.656-8.167,8.167s3.656,8.167,8.167,8.167h107.299
			c4.511,0,8.167-3.656,8.167-8.167S161.329,59.565,156.818,59.565z"/>
	</g>
</g>
<g>
	<g>
		<circle cx="318.22" cy="67.729" r="8.167"/>
	</g>
</g>
<g>
	<g>
		<circle cx="283.67" cy="67.729" r="8.167"/>
	</g>
</g>
<g>
	<g>
		<circle cx="249.12" cy="67.729" r="8.167"/>
	</g>
</g>
<g>
	<g>
		<path d="M156.818,170.633H49.519c-4.511,0-8.167,3.656-8.167,8.167c0,4.511,3.656,8.167,8.167,8.167h107.299
			c4.511,0,8.167-3.656,8.167-8.167C164.985,174.289,161.329,170.633,156.818,170.633z"/>
	</g>
</g>
<g>
	<g>
		<circle cx="318.22" cy="178.799" r="8.167"/>
	</g>
</g>
<g>
	<g>
		<circle cx="283.67" cy="178.799" r="8.167"/>
	</g>
</g>
<g>
	<g>
		<circle cx="249.12" cy="178.799" r="8.167"/>
	</g>
</g>
<g>
	<g>
		<path d="M156.818,281.703H49.519c-4.511,0-8.167,3.656-8.167,8.167s3.656,8.167,8.167,8.167h107.299
			c4.511,0,8.167-3.656,8.167-8.167C164.985,285.359,161.329,281.703,156.818,281.703z"/>
	</g>
</g>
<g>
	<g>
		<path d="M156.818,392.771H49.519c-4.511,0-8.167,3.656-8.167,8.167s3.656,8.167,8.167,8.167h107.299
			c4.511,0,8.167-3.656,8.167-8.167C164.985,396.427,161.329,392.771,156.818,392.771z"/>
	</g>
</g>
<g>
	<g>
		<path d="M468.519,200.39h-49.372c-4.511,0-8.167,3.656-8.167,8.167s3.656,8.167,8.167,8.167h49.372
			c14.969,0,27.147,12.178,27.147,27.147v220.617c0,14.969-12.178,27.147-27.147,27.147H253.322
			c-14.969,0-27.147-12.178-27.147-27.147V243.87c0-14.969,12.178-27.147,27.147-27.147h132.562c4.511,0,8.167-3.656,8.167-8.167
			s-3.656-8.167-8.167-8.167h-16.797v-50.717c0-10.58-4.782-20.059-12.291-26.406c7.51-6.347,12.291-15.826,12.291-26.406V38.604
			c0-19.063-15.51-34.573-34.573-34.573H92.993c-4.511,0-8.167,3.656-8.167,8.167s3.656,8.167,8.167,8.167h241.52
			c10.058,0,18.239,8.182,18.239,18.239V96.86c0,10.058-8.182,18.239-18.239,18.239H34.573c-10.058,0-18.239-8.182-18.239-18.239
			V38.604c0-10.058,8.182-18.239,18.239-18.239h27.931c4.511,0,8.167-3.656,8.167-8.167s-3.656-8.167-8.167-8.167H34.573
			C15.51,4.031,0,19.539,0,38.604V96.86c0,10.58,4.782,20.059,12.291,26.406C4.782,129.612,0,139.093,0,149.672v58.257
			c0,10.58,4.782,20.059,12.291,26.406C4.782,240.682,0,250.161,0,260.742v58.257c0,10.58,4.782,20.059,12.291,26.406
			C4.782,351.75,0,361.23,0,371.81v58.257c0,19.063,15.51,34.573,34.573,34.573h175.272c0.083,23.905,19.553,43.329,43.477,43.329
			h215.197c23.975,0,43.481-19.506,43.481-43.481V243.87C512,219.896,492.494,200.39,468.519,200.39z M209.841,243.87v204.436
			H34.573c-10.058,0-18.239-8.182-18.239-18.24V371.81c0-10.058,8.182-18.239,18.239-18.239h144.989
			c4.511,0,8.167-3.656,8.167-8.167s-3.656-8.167-8.167-8.167H34.573c-10.058,0-18.239-8.182-18.239-18.239V260.74
			c0-10.058,8.182-18.239,18.239-18.239h175.303C209.862,242.958,209.841,243.411,209.841,243.87z M213.623,226.167H34.573
			c-10.058,0.001-18.239-8.181-18.239-18.239v-58.257c0-10.058,8.182-18.239,18.239-18.239h299.941
			c10.058,0,18.239,8.182,18.239,18.239v50.717h-99.431C235.65,200.388,220.416,210.992,213.623,226.167z"/>
	</g>
</g>
<g>
	<g>
		<path d="M450.058,413.477l-34.056-60.623l26.432-26.432c3.189-3.191,3.189-8.361,0-11.552c-3.19-3.188-8.36-3.188-11.551,0
			l-23.191,23.192l-33.262-59.21c-2.897-5.156-8.358-8.351-14.268-8.351c-0.023,0-0.047,0-0.071,0
			c-5.936,0.027-11.402,3.273-14.264,8.473l-74.112,134.625c-2.819,5.122-2.727,11.185,0.248,16.218
			c2.974,5.033,8.241,8.038,14.088,8.038H435.79c5.875,0,11.155-3.027,14.123-8.099
			C452.881,424.685,452.935,418.599,450.058,413.477z M286.051,421.521l-0.027-0.045l74.165-134.625l35.492,63.222l-24.263,24.264
			l-16.003-16.004c-3.19-3.188-8.36-3.188-11.551,0c-3.189,3.19-3.189,8.36,0,11.551l21.778,21.778
			c1.595,1.594,3.686,2.392,5.775,2.392c2.09,0,4.18-0.798,5.775-2.392l26.794-26.794l31.804,56.653H286.051z"/>
	</g>
</g>
<g>
</g>
<g>
</g>
<g>
</g>
<g>
</g>
<g>
</g>
<g>
</g>
<g>
</g>
<g>
</g>
<g>
</g>
<g>
</g>
<g>
</g>
<g>
</g>
<g>
</g>
<g>
</g>
<g>
</g>
</svg>
