<?xml version="1.0" encoding="iso-8859-1"?>
<!-- Generator: Adobe Illustrator 19.0.0, SVG Export Plug-In . SVG Version: 6.00 Build 0)  -->
<svg version="1.1" id="Capa_1" xmlns="http://www.w3.org/2000/svg" xmlns:xlink="http://www.w3.org/1999/xlink" x="0px" y="0px"
	 viewBox="0 0 512 512" style="enable-background:new 0 0 512 512;" xml:space="preserve">
<g>
	<g>
		<path d="M478.596,27.661H82.662c-18.419,0-33.404,14.985-33.404,33.404v176.504C19.134,263.299,0,301.538,0,344.167
			c0,77.291,62.881,140.172,140.172,140.172c52.727,0,98.741-29.27,122.667-72.409h215.757c18.419,0,33.404-14.985,33.404-33.404
			V61.065C512,42.645,497.015,27.661,478.596,27.661z M64.523,61.065c0-10.003,8.137-18.14,18.139-18.14h395.933
			c10.003,0,18.14,8.138,18.14,18.14v50.153H64.523V61.065z M252.065,399.637c-0.574,0.741-1.015,1.589-1.285,2.511
			c-20.925,39.754-62.65,66.927-110.608,66.927c-68.875,0-124.908-56.033-124.908-124.908c0-68.874,56.033-124.907,124.908-124.907
			c68.874,0,124.908,56.033,124.908,124.907C265.08,364.08,260.388,382.915,252.065,399.637z M496.736,378.525
			c0,10.003-8.138,18.141-18.14,18.141H270.134c6.577-16.223,10.21-33.944,10.21-52.499c0-9.425-0.942-18.633-2.724-27.541
			c6.1-0.865,10.811-6.107,10.811-12.442v-22.103c0-6.937-5.644-12.582-12.582-12.582h-17.102c-3.173-5.02-6.649-9.83-10.414-14.394
			c1.642,0.787,3.473,1.241,5.413,1.241h22.103c6.938,0,12.582-5.644,12.582-12.582v-22.103c0-6.937-5.644-12.582-12.582-12.582
			h-22.103c-6.938,0-12.582,5.644-12.582,12.582v22.103c0,1.395,0.238,2.734,0.659,3.989
			c-25.56-26.935-61.677-43.757-101.651-43.757c-27.842,0-53.813,8.161-75.65,22.214v-99.729h432.214V378.525z M267.113,284.763
			h6.054v15.112C271.438,294.697,269.411,289.654,267.113,284.763z M256.429,241.082v-16.739h16.739v16.739H256.429z"/>
	</g>
</g>
<g>
	<g>
		<path d="M194.49,336.535h-31.727c-2.378-7.02-7.939-12.581-14.96-14.959v-55.78c0-4.215-3.417-7.632-7.632-7.632
			c-4.215,0-7.632,3.417-7.632,7.632v55.78c-9.419,3.191-16.22,12.109-16.22,22.591c0,13.152,10.7,23.852,23.852,23.852
			c10.483,0,19.401-6.801,22.592-16.22h31.726c4.215,0,7.632-3.417,7.632-7.632C202.122,339.952,198.705,336.535,194.49,336.535z
			 M140.172,352.755c-4.735,0-8.588-3.853-8.588-8.588s3.853-8.587,8.588-8.587s8.587,3.852,8.587,8.587
			C148.76,348.902,144.907,352.755,140.172,352.755z"/>
	</g>
</g>
<g>
	<g>
		<path d="M338,148.659h-22.103c-6.937,0-12.581,5.644-12.581,12.582v22.103c0,6.937,5.644,12.582,12.581,12.582H338
			c6.938,0,12.582-5.644,12.582-12.582v-22.103C350.582,154.304,344.938,148.659,338,148.659z M335.318,180.662H318.58v-16.739
			h16.738V180.662z"/>
	</g>
</g>
<g>
	<g>
		<path d="M400.455,148.659h-22.103c-6.937,0-12.581,5.644-12.581,12.582v22.103c0,6.937,5.644,12.582,12.581,12.582h22.103
			c6.938,0,12.582-5.644,12.582-12.582v-22.103C413.037,154.304,407.393,148.659,400.455,148.659z M397.773,180.662h-16.738v-16.739
			h16.738V180.662z"/>
	</g>
</g>
<g>
	<g>
		<path d="M462.91,148.659h-22.103c-6.937,0-12.581,5.644-12.581,12.582v22.103c0,6.937,5.644,12.582,12.581,12.582h22.103
			c6.938,0,12.582-5.644,12.582-12.582v-22.103C475.492,154.304,469.848,148.659,462.91,148.659z M460.228,180.662H443.49v-16.739
			h16.738V180.662z"/>
	</g>
</g>
<g>
	<g>
		<path d="M338,209.079h-22.103c-6.937,0-12.581,5.644-12.581,12.582v22.103c0,6.937,5.644,12.582,12.581,12.582H338
			c6.938,0,12.582-5.644,12.582-12.582v-22.103C350.582,214.724,344.938,209.079,338,209.079z M335.318,241.082H318.58v-16.739
			h16.738V241.082z"/>
	</g>
</g>
<g>
	<g>
		<path d="M400.455,209.079h-22.103c-6.937,0-12.581,5.644-12.581,12.582v22.103c0,6.937,5.644,12.582,12.581,12.582h22.103
			c6.938,0,12.582-5.644,12.582-12.582v-22.103C413.037,214.724,407.393,209.079,400.455,209.079z M397.773,241.082h-16.738v-16.739
			h16.738V241.082z"/>
	</g>
</g>
<g>
	<g>
		<path d="M462.91,209.079h-22.103c-6.937,0-12.581,5.644-12.581,12.582v22.103c0,6.937,5.644,12.582,12.581,12.582h22.103
			c6.938,0,12.582-5.644,12.582-12.582v-22.103C475.492,214.724,469.848,209.079,462.91,209.079z M460.228,241.082H443.49v-16.739
			h16.738V241.082z"/>
	</g>
</g>
<g>
	<g>
		<path d="M338,269.499h-22.103c-6.937,0-12.581,5.645-12.581,12.582v22.103c0,6.937,5.644,12.582,12.581,12.582H338
			c6.938,0,12.582-5.644,12.582-12.582v-22.103C350.582,275.144,344.938,269.499,338,269.499z M335.318,301.502H318.58v-16.739
			h16.738V301.502z"/>
	</g>
</g>
<g>
	<g>
		<path d="M400.455,269.499h-22.103c-6.937,0-12.581,5.645-12.581,12.582v22.103c0,6.937,5.644,12.582,12.581,12.582h22.103
			c6.938,0,12.582-5.644,12.582-12.582v-22.103C413.037,275.144,407.393,269.499,400.455,269.499z M397.773,301.502h-16.738v-16.739
			h16.738V301.502z"/>
	</g>
</g>
<g>
	<g>
		<path d="M462.91,269.499h-22.103c-6.937,0-12.581,5.645-12.581,12.582v22.103c0,6.937,5.644,12.582,12.581,12.582h22.103
			c6.938,0,12.582-5.644,12.582-12.582v-22.103C475.492,275.144,469.848,269.499,462.91,269.499z M460.228,301.502H443.49v-16.739
			h16.738V301.502z"/>
	</g>
</g>
<g>
	<g>
		<path d="M338,329.919h-22.103c-6.937,0-12.581,5.644-12.581,12.582v22.103c0,6.937,5.644,12.582,12.581,12.582H338
			c6.938,0,12.582-5.645,12.582-12.582v-22.103C350.582,335.563,344.938,329.919,338,329.919z M335.318,361.922H318.58v-16.739
			h16.738V361.922z"/>
	</g>
</g>
<g>
	<g>
		<path d="M275.849,148.659h-22.103c-6.938,0-12.582,5.644-12.582,12.582v22.103c0,6.937,5.644,12.582,12.582,12.582h22.103
			c6.938,0,12.582-5.644,12.582-12.582v-22.103C288.431,154.304,282.787,148.659,275.849,148.659z M273.167,180.662h-16.739v-16.739
			h16.739V180.662z"/>
	</g>
</g>
<g>
	<g>
		<path d="M214.454,148.659h-22.103c-6.937,0-12.581,5.644-12.581,12.582v22.103c0,6.937,5.644,12.582,12.581,12.582h22.103
			c6.938,0,12.582-5.644,12.582-12.582v-22.103C227.036,154.304,221.392,148.659,214.454,148.659z M211.772,180.662h-16.738v-16.739
			h16.738V180.662z"/>
	</g>
</g>
<g>
	<g>
		<path d="M400.455,329.919h-22.103c-6.937,0-12.581,5.644-12.581,12.582v22.103c0,6.937,5.644,12.582,12.581,12.582h22.103
			c6.938,0,12.582-5.645,12.582-12.582v-22.103C413.037,335.563,407.393,329.919,400.455,329.919z M397.773,361.922h-16.738v-16.739
			h16.738V361.922z"/>
	</g>
</g>
<g>
	<g>
		<path d="M462.91,329.919h-22.103c-6.937,0-12.581,5.644-12.581,12.582v22.103c0,6.937,5.644,12.582,12.581,12.582h22.103
			c6.938,0,12.582-5.645,12.582-12.582v-22.103C475.492,335.563,469.848,329.919,462.91,329.919z M460.228,361.922H443.49v-16.739
			h16.738V361.922z"/>
	</g>
</g>
<g>
	<g>
		<circle cx="173.02" cy="78.51" r="9.17"/>
	</g>
</g>
<g>
	<g>
		<circle cx="395.45" cy="78.51" r="9.17"/>
	</g>
</g>
<g>
</g>
<g>
</g>
<g>
</g>
<g>
</g>
<g>
</g>
<g>
</g>
<g>
</g>
<g>
</g>
<g>
</g>
<g>
</g>
<g>
</g>
<g>
</g>
<g>
</g>
<g>
</g>
<g>
</g>
</svg>
