<?xml version="1.0" encoding="iso-8859-1"?>
<!-- Generator: Adobe Illustrator 19.0.0, SVG Export Plug-In . SVG Version: 6.00 Build 0)  -->
<svg version="1.1" id="Capa_1" xmlns="http://www.w3.org/2000/svg" xmlns:xlink="http://www.w3.org/1999/xlink" x="0px" y="0px"
	 viewBox="0 0 511.999 511.999" style="enable-background:new 0 0 511.999 511.999;" xml:space="preserve">
<g>
	<g>
		<path d="M376.005,151.58h-12.113V33.669c0-12.173-9.778-22.076-21.798-22.076h-164.77c-12.02,0-21.798,9.903-21.798,22.076v96.339
			c0,4.187,3.394,7.581,7.581,7.581s7.581-3.394,7.581-7.581V33.669c0-3.813,2.977-6.914,6.637-6.914h164.77
			c3.66,0,6.637,3.101,6.637,6.914v117.91H142.248c-4.187,0-7.581,3.394-7.581,7.581v6.848c0,15.471,12.586,28.057,28.057,28.057
			h192.805c15.471,0,28.057-12.586,28.057-28.057v-6.848C383.586,154.974,380.192,151.58,376.005,151.58z M355.529,178.904H162.724
			c-6.865,0-12.494-5.391-12.875-12.163h218.555C368.023,173.513,362.394,178.904,355.529,178.904z"/>
	</g>
</g>
<g>
	<g>
		<path d="M241.339,457.919h-12.113v-117.91c0-12.173-9.778-22.076-21.798-22.076H42.658c-12.02,0-21.798,9.903-21.798,22.076v96.34
			c0,4.187,3.394,7.581,7.581,7.581c4.187,0,7.581-3.394,7.581-7.581v-96.34c0-3.813,2.977-6.914,6.637-6.914h164.77
			c3.66,0,6.637,3.101,6.637,6.914v117.91H7.581C3.394,457.919,0,461.313,0,465.5v6.848c0,15.471,12.586,28.058,28.057,28.058
			h192.805c15.471,0,28.057-12.586,28.057-28.058V465.5C248.92,461.313,245.526,457.919,241.339,457.919z M220.863,485.243H28.057
			c-6.865,0-12.494-5.392-12.875-12.164h218.555C233.357,479.852,227.728,485.243,220.863,485.243z"/>
	</g>
</g>
<g>
	<g>
		<path d="M504.419,457.919h-12.113v-117.91c0-12.173-9.779-22.076-21.798-22.076h-164.77c-12.02,0-21.798,9.903-21.798,22.076
			v96.34c0,4.187,3.394,7.581,7.581,7.581c4.187,0,7.581-3.394,7.581-7.581v-96.34c0-3.813,2.977-6.914,6.637-6.914h164.77
			c3.66,0,6.637,3.101,6.637,6.914v117.91H270.661c-4.187,0-7.581,3.394-7.581,7.581v6.848c0,15.471,12.586,28.058,28.057,28.058
			h192.805c15.471,0,28.057-12.586,28.057-28.058V465.5C512,461.313,508.606,457.919,504.419,457.919z M483.943,485.243H291.137
			c-6.865,0-12.494-5.392-12.875-12.164h218.555C496.437,479.852,490.808,485.243,483.943,485.243z"/>
	</g>
</g>
<g>
	<g>
		<path d="M375.332,248.101H267.291v-31.839c0-4.187-3.394-7.581-7.581-7.581c-4.187,0-7.581,3.394-7.581,7.581v31.839H142.253
			c-13.991,0-25.374,11.383-25.374,25.374v21.627c0,4.187,3.394,7.581,7.581,7.581s7.581-3.394,7.581-7.581v-21.627
			c0-5.631,4.581-10.212,10.212-10.212h233.079c5.631-0.001,10.212,4.58,10.212,10.212v21.627c0,4.187,3.394,7.581,7.581,7.581
			c4.187,0,7.581-3.394,7.581-7.581v-21.627C400.706,259.484,389.324,248.101,375.332,248.101z"/>
	</g>
</g>
<g>
</g>
<g>
</g>
<g>
</g>
<g>
</g>
<g>
</g>
<g>
</g>
<g>
</g>
<g>
</g>
<g>
</g>
<g>
</g>
<g>
</g>
<g>
</g>
<g>
</g>
<g>
</g>
<g>
</g>
</svg>
