<?xml version="1.0" encoding="iso-8859-1"?>
<!-- Generator: Adobe Illustrator 19.0.0, SVG Export Plug-In . SVG Version: 6.00 Build 0)  -->
<svg version="1.1" id="Capa_1" xmlns="http://www.w3.org/2000/svg" xmlns:xlink="http://www.w3.org/1999/xlink" x="0px" y="0px"
	 viewBox="0 0 512 512" style="enable-background:new 0 0 512 512;" xml:space="preserve">
<g>
	<g>
		<g>
			<path d="M504.313,417.88h-16.911V134.95c0-22.749-18.219-41.256-40.612-41.256h-35.781c-4.245,0-7.687,3.442-7.687,7.687
				s3.442,7.687,7.687,7.687h35.781c13.917,0,25.239,11.611,25.239,25.882v282.93H39.971V134.95
				c0-14.272,11.322-25.882,25.238-25.882h65.838c-0.07,8.645,0.229,17.816,1.042,27.379c0.371,4.427,0.858,8.842,1.443,13.245
				c4.085,30.911,13.22,59.436,27.323,85.07c10.625,19.312,23.807,36.427,39.181,50.87c3.093,2.908,7.958,2.753,10.866-0.338
				c2.907-3.095,2.755-7.959-0.339-10.866c-14.198-13.339-26.39-29.178-36.237-47.077c-12.609-22.917-19.904-46.598-23.834-68.99
				h99.614V302.34c-5.216-2.65-10.359-5.616-15.374-8.888c-3.556-2.32-8.319-1.319-10.638,2.238
				c-2.32,3.555-1.318,8.318,2.237,10.637c9.186,5.993,18.778,11.082,28.511,15.126c1.87,0.776,4.03,0.778,5.899,0.001
				c6.5-2.701,14.656-6.619,23.672-12.116c8.652-5.275,16.869-11.26,24.565-17.851c9.275-7.943,17.788-16.768,25.432-26.289
				c8.615-10.73,16.158-22.345,22.515-34.549c6.416-12.318,11.721-25.206,15.848-38.468c4.194-13.478,7.204-27.313,9.117-41.296
				c0.224-1.639,0.442-3.279,0.636-4.922h55.681v235.662H77.376v-235.66h27.87c4.245,0,7.687-3.442,7.687-7.687
				s-3.442-7.687-7.687-7.687H69.69c-4.245,0-7.687,3.442-7.687,7.687v251.035c0,4.246,3.442,7.687,7.687,7.687h376.204
				c4.245,0,7.687-3.441,7.687-7.687V138.278c0-4.245-3.442-7.687-7.687-7.687h-61.958c2.193-33.934-1.95-62.394-5.358-78.937
				c-0.199-0.972-0.403-1.943-0.616-2.912c-0.647-2.958-2.046-5.572-3.955-7.602c-0.04-0.043-0.077-0.089-0.117-0.131
				c-0.024-0.025-0.05-0.047-0.074-0.072c-1.959-2.008-4.43-3.414-7.175-3.96L259.292,15.612c-0.978-0.194-2.023-0.195-3.001,0
				L148.942,36.978c-3.47,0.691-6.524,2.794-8.593,5.638c-1.972,2.711-2.677,5.79-3.338,9.012
				c-2.078,10.079-4.43,24.58-5.455,42.066H65.21c-22.393,0-40.612,18.507-40.612,41.256v282.93H7.687
				c-4.245,0-7.687,3.441-7.687,7.687v15.86c0,30.386,24.721,55.107,55.107,55.107h401.786c30.386,0,55.107-24.721,55.107-55.107
				v-15.86C512,421.321,508.558,417.88,504.313,417.88z M349.903,209.686c-0.106,0.245-0.21,0.491-0.316,0.734
				c0.009-0.021,0.012-0.026-0.008,0.02c-0.253,0.579-0.071,0.161-0.004,0.01c-6.761,15.463-15.391,30.127-25.802,43.416
				c-10.206,13.028-22.156,24.682-35.525,34.444c-7.205,5.261-14.816,9.976-22.769,14.021v-143.97h99.613
				C362.165,175.037,357.369,192.427,349.903,209.686z M265.478,32.519l97.435,19.393c0.497,1.716,0.754,3.548,1.093,5.301
				c3.158,16.353,7.559,48.441,3.307,85.776H265.478V32.519z M151.582,57.181c0.339-1.749,0.607-3.553,1.087-5.269l97.436-19.393
				v110.47H148.269C144.014,105.631,148.424,73.525,151.582,57.181z M496.627,441.427L496.627,441.427
				c-0.001,21.909-17.825,39.733-39.735,39.733H55.107c-21.909,0-39.733-17.824-39.733-39.733v-8.173h462.633
				c0.55,0.125,1.121,0.197,1.709,0.197s1.158-0.072,1.709-0.197h15.202V441.427z"/>
			<path d="M349.579,210.44c0.003-0.006,0.006-0.013,0.008-0.02c-0.004,0.009-0.006,0.014-0.013,0.029
				C349.576,210.446,349.578,210.443,349.579,210.44z"/>
		</g>
	</g>
</g>
<g>
</g>
<g>
</g>
<g>
</g>
<g>
</g>
<g>
</g>
<g>
</g>
<g>
</g>
<g>
</g>
<g>
</g>
<g>
</g>
<g>
</g>
<g>
</g>
<g>
</g>
<g>
</g>
<g>
</g>
</svg>
