<?xml version="1.0" encoding="iso-8859-1"?>
<!-- Generator: Adobe Illustrator 19.0.0, SVG Export Plug-In . SVG Version: 6.00 Build 0)  -->
<svg version="1.1" id="Capa_1" xmlns="http://www.w3.org/2000/svg" xmlns:xlink="http://www.w3.org/1999/xlink" x="0px" y="0px"
	 viewBox="0 0 512.003 512.003" style="enable-background:new 0 0 512.003 512.003;" xml:space="preserve">
<g>
	<g>
		<path d="M451.067,73.973c-40.878-44.784-96.75-70.969-157.323-73.73c-60.569-2.768-118.595,18.23-163.379,59.108
			c-12.339,11.262-23.417,23.844-32.927,37.397c-2.467,3.516-1.617,8.366,1.899,10.833c3.516,2.469,8.366,1.618,10.833-1.899
			c8.859-12.624,19.181-24.347,30.681-34.843c86.115-78.605,220.123-72.494,298.728,13.62s72.495,220.123-13.62,298.728
			c-20.121,18.366-43.063,32.415-68.268,41.847c-1.759-3.601-4.119-6.981-7.102-9.974c-2.111-2.118-4.476-3.982-7.097-5.578
			l-19.366-11.536c29.078-6.796,55.807-20.864,78.229-41.331c34.705-31.678,54.996-74.974,57.135-121.914
			c2.14-46.939-14.127-91.903-45.804-126.607c-2.897-3.173-7.816-3.397-10.987-0.501c-3.172,2.896-3.397,7.815-0.501,10.987
			c28.877,31.636,43.706,72.624,41.755,115.413s-20.448,82.258-52.083,111.134c-24.698,22.545-55.122,36.573-88.128,40.676
			l-19.186-11.429c-16.06-9.538-36.496-6.967-49.722,6.283l-13.38,13.545c-1.092,1.109-2.782,1.435-4.202,0.813
			c-44.163-19.418-79.127-54.456-98.45-98.662c-0.016-0.037-0.033-0.074-0.05-0.111c-0.643-1.41-0.346-3.102,0.667-4.139
			l13.542-13.486c13.22-13.197,15.792-33.632,6.245-49.708l-14.313-23.983c5.065-37.108,23.019-71.355,50.758-96.675
			c27.065-24.705,60.652-39.073,97.128-41.551c35.408-2.403,71.031,7.101,100.31,26.768c3.565,2.395,8.397,1.446,10.792-2.119
			c2.395-3.565,1.447-8.397-2.119-10.792c-32.127-21.581-71.204-32.015-110.037-29.375c-40.022,2.719-76.87,18.481-106.56,45.581
			c-25.891,23.633-44.007,54.358-52.262,88.074l-8.8-14.744c-0.033-0.055-0.067-0.11-0.102-0.166
			c-1.589-2.517-3.476-4.846-5.547-6.862c-4-3.982-8.689-6.864-13.686-8.663c2.81-7.705,6.071-15.261,9.742-22.55
			c1.932-3.836,0.388-8.512-3.448-10.444c-3.835-1.932-8.511-0.387-10.444,3.448c-4.452,8.842-8.339,18.051-11.603,27.44
			c-8.552,0.674-16.908,4.246-23.423,10.733l-9.515,9.35C2.52,205.981-7.585,256.111,10.335,300.087
			c32.908,80.88,93.627,147.728,170.971,188.23c3.806,1.994,8.505,0.522,10.497-3.281c1.993-3.805,0.524-8.505-3.281-10.497
			C114.43,435.74,56.265,371.703,24.74,294.221c-15.555-38.173-6.784-81.685,22.292-110.8l9.5-9.334
			c4.545-4.524,10.607-6.614,16.579-6.31c0.493,0.096,0.986,0.16,1.475,0.16c0.064,0,0.127-0.014,0.191-0.015
			c4.661,0.592,9.177,2.652,12.768,6.227c1.236,1.203,2.332,2.55,3.259,4.006l35.039,58.711c5.901,9.937,4.31,22.58-3.863,30.738
			l-13.605,13.551c-5.531,5.652-7.055,14.276-3.801,21.48C125.47,350.404,163.262,388.268,211,409.257
			c7.297,3.199,15.952,1.534,21.53-4.133l13.342-13.506c8.164-8.179,20.807-9.771,30.735-3.874l21.349,12.718
			c0.013,0.008,0.027,0.016,0.04,0.024l37.469,22.32c1.493,0.91,2.875,1.998,4.109,3.237c8.517,8.544,8.494,22.424-0.123,31.015
			l-9.231,9.45c-29.166,29.129-72.677,37.899-110.852,22.344c-3.975-1.62-8.516,0.29-10.136,4.267
			c-1.621,3.978,0.29,8.516,4.267,10.136c14.444,5.886,29.546,8.748,44.516,8.748c30.611,0,60.652-11.976,83.264-34.559l9.225-9.445
			c7.643-7.619,11.292-17.746,10.96-27.765c27.734-10.13,52.938-25.436,74.982-45.557c44.784-40.879,70.969-96.75,73.73-157.323
			C512.936,176.779,491.944,118.756,451.067,73.973z"/>
	</g>
</g>
<g>
	<g>
		<path d="M274.355,271.064c-1.184-1.522-2.565-2.281-4.142-2.281h-49.697v-6.411c0-3.486,1.885-7.087,5.662-10.799
			c3.774-3.712,8.338-7.396,13.692-11.052c5.351-3.656,10.704-7.536,16.058-11.643c5.352-4.103,9.915-9.109,13.692-15.015
			c3.774-5.906,5.663-12.231,5.663-18.982c0-9.957-3.523-18.073-10.565-24.354c-7.045-6.281-15.581-9.421-25.61-9.421
			c-9.466,0-17.608,2.789-24.425,8.367c-6.82,5.578-10.227,12.763-10.227,21.552c0,6.651,2.705,9.973,8.114,9.973
			c2.815,0,5.097-0.671,6.846-2.012c1.746-1.343,2.62-2.911,2.62-4.703c0-5.48,1.577-9.619,4.733-12.416
			c3.154-2.798,7.268-4.197,12.34-4.197c5.972,0,10.507,1.772,13.607,5.314c3.099,3.544,4.649,7.678,4.649,12.4
			c0,4.725-1.889,9.451-5.663,14.172c-3.774,4.727-8.364,9.058-13.774,12.994L221.7,234.362c-5.38,3.94-9.909,8.33-13.586,13.168
			c-3.677,4.839-5.515,9.792-5.515,14.857v16.376c0,1.691,0.866,3.096,2.601,4.221c1.733,1.126,3.497,1.688,5.288,1.688h59.765
			c1.566,0,2.938-0.816,4.112-2.452c1.176-1.632,1.765-3.52,1.765-5.663C276.13,274.418,275.538,272.586,274.355,271.064z"/>
	</g>
</g>
<g>
	<g>
		<path d="M355.327,242.726c-1.072-1.675-2.564-2.511-4.479-2.511h-8.283v-23.462c0-1.926-0.875-3.399-2.621-4.419
			c-1.748-1.02-3.861-1.532-6.339-1.532c-5.974,0-8.959,1.984-8.959,5.951v23.462h-24.848l34.822-69.475
			c0.563-1.125,0.846-2.028,0.846-2.705c0-1.915-1.015-3.549-3.043-4.902c-2.028-1.353-4.002-2.028-5.917-2.028
			c-3.495,0-6.085,1.632-7.776,4.896l-40.907,80.539c-0.675,1.239-1.014,2.478-1.014,3.714c0,2.007,0.591,3.597,1.775,4.769
			c1.183,1.173,2.675,1.757,4.479,1.757h41.584v21.938c-0.001,1.817,0.871,3.262,2.619,4.341c1.746,1.077,3.859,1.613,6.339,1.613
			c2.366,0,4.45-0.536,6.255-1.613c1.801-1.078,2.705-2.523,2.705-4.34V256.78h8.283c1.577,0,2.984-0.864,4.226-2.593
			c1.238-1.728,1.859-3.598,1.859-5.605C356.933,246.353,356.397,244.401,355.327,242.726z"/>
	</g>
</g>
<g>
</g>
<g>
</g>
<g>
</g>
<g>
</g>
<g>
</g>
<g>
</g>
<g>
</g>
<g>
</g>
<g>
</g>
<g>
</g>
<g>
</g>
<g>
</g>
<g>
</g>
<g>
</g>
<g>
</g>
</svg>
