<?xml version="1.0" encoding="iso-8859-1"?>
<!-- Generator: Adobe Illustrator 19.0.0, SVG Export Plug-In . SVG Version: 6.00 Build 0)  -->
<svg version="1.1" id="Capa_1" xmlns="http://www.w3.org/2000/svg" xmlns:xlink="http://www.w3.org/1999/xlink" x="0px" y="0px"
	 viewBox="0 0 512.001 512.001" style="enable-background:new 0 0 512.001 512.001;" xml:space="preserve">
<g>
	<g>
		<path d="M504.313,430.353h-16.911v-282.93c0-22.749-18.219-41.256-40.612-41.256h-73.609c-4.245,0-7.687,3.442-7.687,7.687
			s3.442,7.687,7.687,7.687h73.609c13.916,0,25.238,11.611,25.238,25.882v282.93H7.687c-4.245,0-7.687,3.442-7.687,7.687v15.86
			c0,30.386,24.721,55.107,55.107,55.107h401.787c30.386,0,55.107-24.721,55.107-55.107v-15.86
			C512,433.795,508.558,430.353,504.313,430.353z M496.627,453.899L496.627,453.899c-0.001,21.909-17.825,39.733-39.734,39.733
			H55.107c-21.909,0-39.733-17.824-39.733-39.733v-8.173h481.253V453.899z"/>
	</g>
</g>
<g>
	<g>
		<path d="M445.894,205.702c4.245,0,7.687-3.442,7.687-7.687V150.75c0-4.245-3.442-7.687-7.687-7.687H352.79V41.815
			c0.234-0.501,0.442-1.019,0.61-1.56l6.42-20.773c1.126-3.644,0.447-7.652-1.817-10.721c-2.264-3.069-5.892-4.901-9.706-4.901
			h-30.619c-3.814,0-7.443,1.833-9.707,4.902c-2.264,3.069-2.943,7.077-1.817,10.72l6.42,20.774c0.167,0.541,0.376,1.058,0.61,1.559
			v64.352h-52.139c3.834-9.363,5.914-19.539,5.914-30.063c0-31.27-18.471-59.706-47.06-72.445c-2.377-1.058-5.131-0.844-7.314,0.574
			c-2.183,1.417-3.501,3.844-3.501,6.447v55.383c0,1.895-1.541,3.437-3.437,3.437H169.68c-1.895,0-3.436-1.542-3.436-3.437V10.681
			c0-2.603-1.318-5.03-3.501-6.447c-2.184-1.417-4.935-1.633-7.314-0.574c-28.588,12.739-47.06,41.175-47.06,72.445
			c0,10.492,2.102,20.676,5.965,30.063H65.21c-22.393,0-40.612,18.507-40.612,41.256v254.363c0,4.244,3.441,7.685,7.687,7.685
			c4.245,0,7.687-3.442,7.687-7.687V147.423c0-14.272,11.322-25.882,25.238-25.882h57.528c5.944,8.496,13.551,15.85,22.48,21.523
			H69.69c-4.245,0-7.687,3.442-7.687,7.687v251.035c0,4.245,3.442,7.687,7.687,7.687h257.83c1.794,0.218,3.616,0.343,5.468,0.343
			s3.674-0.125,5.468-0.343h107.438c4.245,0,7.687-3.442,7.687-7.687V242.599c0-4.245-3.442-7.687-7.687-7.687
			c-4.245,0-7.687,3.442-7.687,7.687v151.5h-71.045c6.804-7.9,10.931-18.168,10.931-29.388v-86.375c0-3.047-1.799-5.806-4.588-7.034
			c-8.811-3.882-14.504-12.605-14.504-22.222c0-9.617,5.693-18.34,14.504-22.222c2.788-1.229,4.588-3.988,4.588-7.034V203.53
			c0-11.616-9.45-21.066-21.066-21.066h-4.237v-24.027h85.417v39.578C438.207,202.26,441.649,205.702,445.894,205.702z
			 M343.806,19.234l-4.373,14.148h-12.89l-4.373-14.148H343.806z M337.417,48.755v133.709h-8.858V48.755H337.417z M257.792,121.54
			h55.393v21.523h-83.044c9.405-5.961,17.336-13.76,23.4-22.808C254.759,121.066,256.219,121.54,257.792,121.54z M210.759,384.148
			c-6.074,6.394-14.275,9.916-23.094,9.916c-8.778,0-16.952-3.494-23.019-9.837c-6.066-6.344-9.192-14.666-8.8-23.435l4.957-110.962
			c0.189-4.241-3.095-7.832-7.336-8.022c-4.217-0.18-7.833,3.095-8.022,7.336l-4.957,110.961
			c-0.565,12.661,3.827,24.687,12.363,33.994H77.376V158.437h72.12l-2.624,58.74c-0.189,4.241,3.095,7.833,7.336,8.023
			c4.244,0.176,7.833-3.095,8.023-7.336l3.407-76.263c0.14-3.131-1.635-6.033-4.486-7.335
			c-22.725-10.379-37.409-33.208-37.409-58.16c0-21.007,10.342-40.427,27.128-52.261v42.219c0,10.372,8.438,18.81,18.81,18.81
			h35.967c10.372,0,18.81-8.438,18.81-18.81V23.845c16.786,11.834,27.128,31.254,27.128,52.26c0,25.588-15.199,48.651-38.72,58.755
			c-2.956,1.27-4.809,4.246-4.643,7.459l11.25,218.255C219.927,369.381,216.833,377.754,210.759,384.148z M298.814,394.098H222.48
			c8.618-9.398,13.005-21.545,12.346-34.317l-10.378-201.344h88.737v24.027h-4.237c-11.615,0-21.065,9.45-21.065,21.066v16.293
			c0,3.047,1.799,5.806,4.587,7.034c8.811,3.882,14.504,12.605,14.504,22.222c0,9.617-5.693,18.34-14.504,22.222
			c-2.788,1.229-4.587,3.988-4.587,7.034v86.375C287.883,375.93,292.01,386.197,298.814,394.098z M357.027,197.838
			c3.139,0,5.692,2.553,5.692,5.692v11.647c-11.742,7.124-19.091,19.935-19.091,33.902c0,13.967,7.349,26.778,19.091,33.902v81.73
			c0,14.857-10.954,27.203-25.209,29.388h-9.045c-14.255-2.185-25.209-14.531-25.209-29.388v-81.73
			c11.742-7.124,19.091-19.935,19.091-33.902c0-13.967-7.349-26.778-19.091-33.902V203.53c0-3.139,2.553-5.692,5.692-5.692h11.924
			h24.231H357.027z"/>
	</g>
</g>
<g>
	<g>
		<path d="M201.073,347.612c-3.689-3.689-8.594-5.721-13.811-5.721c-5.217,0-10.122,2.032-13.811,5.721
			c-7.615,7.615-7.615,20.006,0,27.622c3.808,3.808,8.81,5.711,13.811,5.711c5.001,0,10.003-1.903,13.811-5.711
			C208.688,367.618,208.688,355.227,201.073,347.612z M190.204,364.364c-1.621,1.621-4.26,1.621-5.881,0
			c-1.622-1.622-1.622-4.259-0.001-5.881c0.811-0.811,1.876-1.216,2.941-1.216s2.13,0.405,2.941,1.216
			C191.825,360.104,191.825,362.742,190.204,364.364z"/>
	</g>
</g>
<g>
	<g>
		<path d="M320.944,284.986c-4.245,0-7.687,3.442-7.687,7.687v66.826c0,4.245,3.442,7.687,7.687,7.687
			c4.245,0,7.687-3.442,7.687-7.687v-66.826C328.631,288.427,325.189,284.986,320.944,284.986z"/>
	</g>
</g>
<g>
	<g>
		<path d="M345.635,284.986c-4.246,0-7.687,3.441-7.687,7.687v66.826c0,4.245,3.442,7.687,7.687,7.687s7.687-3.442,7.687-7.687
			v-66.826C353.322,288.428,349.88,284.986,345.635,284.986z"/>
	</g>
</g>
<g>
</g>
<g>
</g>
<g>
</g>
<g>
</g>
<g>
</g>
<g>
</g>
<g>
</g>
<g>
</g>
<g>
</g>
<g>
</g>
<g>
</g>
<g>
</g>
<g>
</g>
<g>
</g>
<g>
</g>
</svg>
