<?xml version="1.0" encoding="iso-8859-1"?>
<!-- Generator: Adobe Illustrator 19.0.0, SVG Export Plug-In . SVG Version: 6.00 Build 0)  -->
<svg version="1.1" id="Capa_1" xmlns="http://www.w3.org/2000/svg" xmlns:xlink="http://www.w3.org/1999/xlink" x="0px" y="0px"
	 viewBox="0 0 512 512" style="enable-background:new 0 0 512 512;" xml:space="preserve">
<g>
	<g>
		<path d="M394.667,0H117.333C87.915,0,64,23.936,64,53.333V96c0,29.397,23.915,53.333,53.333,53.333h277.333
			C424.085,149.333,448,125.397,448,96V53.333C448,23.936,424.085,0,394.667,0z M426.667,96c0,17.643-14.357,32-32,32H117.333
			c-17.643,0-32-14.357-32-32V53.333c0-17.643,14.357-32,32-32h277.333c17.643,0,32,14.357,32,32V96z"/>
	</g>
</g>
<g>
	<g>
		<path d="M501.333,64h-64c-5.888,0-10.667,4.779-10.667,10.667s4.779,10.667,10.667,10.667h64c5.888,0,10.667-4.779,10.667-10.667
			S507.221,64,501.333,64z"/>
	</g>
</g>
<g>
	<g>
		<path d="M232.768,228.864L48.064,198.08c-15.488-2.581-26.731-15.851-26.731-31.552v-49.195c0-17.643,14.357-32,32-32h21.333
			c5.888,0,10.667-4.779,10.667-10.667S80.555,64,74.667,64H53.333C23.915,64,0,87.936,0,117.333v49.195
			c0,26.176,18.752,48.299,44.565,52.608l184.704,30.784C244.757,252.501,256,265.771,256,281.472V288
			c0,5.888,4.779,10.667,10.667,10.667s10.667-4.779,10.667-10.667v-6.528C277.333,255.296,258.581,233.173,232.768,228.864z"/>
	</g>
</g>
<g>
	<g>
		<path d="M266.667,277.333c-29.419,0-53.333,23.936-53.333,53.333v128c0,29.397,23.915,53.333,53.333,53.333
			C296.085,512,320,488.064,320,458.667v-128C320,301.269,296.085,277.333,266.667,277.333z M298.667,458.667
			c0,17.643-14.357,32-32,32c-17.643,0-32-14.357-32-32v-128c0-17.643,14.357-32,32-32c17.643,0,32,14.357,32,32V458.667z"/>
	</g>
</g>
<g>
</g>
<g>
</g>
<g>
</g>
<g>
</g>
<g>
</g>
<g>
</g>
<g>
</g>
<g>
</g>
<g>
</g>
<g>
</g>
<g>
</g>
<g>
</g>
<g>
</g>
<g>
</g>
<g>
</g>
</svg>
