<?xml version="1.0" encoding="iso-8859-1"?>
<!-- Generator: Adobe Illustrator 19.0.0, SVG Export Plug-In . SVG Version: 6.00 Build 0)  -->
<svg version="1.1" id="Layer_1" xmlns="http://www.w3.org/2000/svg" xmlns:xlink="http://www.w3.org/1999/xlink" x="0px" y="0px"
	 viewBox="0 0 511.999 511.999" style="enable-background:new 0 0 511.999 511.999;" xml:space="preserve">
<g>
	<g>
		<path d="M456.698,285.963c-4.117-0.516-7.859,2.401-8.373,6.512c-0.514,4.11,2.401,7.858,6.511,8.373
			c32.203,4.026,41.276,11.938,42.099,39.086c-0.158,0.085-0.315,0.173-0.472,0.257c-1.49,0.801-2.985,1.589-4.482,2.367
			c-0.259,0.135-0.517,0.274-0.777,0.408c-28.224,14.59-57.679,25.237-87.889,31.77c15.532-29.182,17.241-58.978,16.446-76.688
			c1.82,0.105,3.606,0.211,5.357,0.318c4.145,0.239,7.69-2.896,7.942-7.03c0.252-4.134-2.896-7.69-7.03-7.942
			c-3.665-0.224-7.489-0.442-11.478-0.669c-0.003,0-0.007-0.001-0.01-0.001l-1.767-0.1c-0.235-0.013-0.464-0.026-0.7-0.04
			c-0.001,0-0.002,0-0.003,0l-0.985-0.056c-20.213-1.141-43.124-2.434-70.588-5.114c-3.842-0.375-7.554-0.981-11.15-1.777
			c-0.402-0.089-0.804-0.18-1.204-0.275c-0.776-0.183-1.546-0.377-2.311-0.578c-0.415-0.109-0.831-0.215-1.243-0.33
			c-0.723-0.201-1.437-0.416-2.15-0.633c-0.437-0.133-0.877-0.258-1.311-0.397c-0.526-0.168-1.041-0.353-1.562-0.53
			c-1.391-0.474-2.772-0.973-4.135-1.512c-0.126-0.05-0.255-0.096-0.38-0.146c-0.902-0.361-1.797-0.737-2.687-1.125
			c-0.084-0.037-0.169-0.072-0.253-0.109c-13.435-5.904-25.487-14.906-36.09-26.167c-0.062-0.066-0.125-0.133-0.187-0.199
			c-0.639-0.681-1.271-1.373-1.9-2.07c-0.202-0.225-0.403-0.45-0.603-0.676c-0.237-0.266-0.47-0.537-0.705-0.805
			c-0.059-0.077-0.112-0.157-0.175-0.232c-0.167-0.199-0.341-0.388-0.523-0.565c-0.008-0.009-0.016-0.018-0.024-0.027
			c-0.344-0.399-0.685-0.799-1.023-1.201c-0.314-0.371-0.626-0.745-0.936-1.121c-0.483-0.585-0.962-1.17-1.432-1.758
			c-0.148-0.184-0.295-0.368-0.442-0.553c-5.331-6.718-9.877-13.585-13.686-20.091c-0.961-1.64-1.898-3.313-2.823-5.003
			c-0.016-0.031-0.028-0.062-0.044-0.093c-0.022-0.042-0.049-0.079-0.072-0.119c-13.702-25.117-23.398-55.541-27.837-86.808
			c-0.012-0.115-0.03-0.229-0.048-0.345c-0.663-4.715-1.213-9.448-1.633-14.184c-0.007-0.082-0.015-0.164-0.023-0.246
			c-0.102-1.164-0.194-2.329-0.282-3.494c-0.013-0.173-0.028-0.346-0.041-0.519c-0.087-1.192-0.164-2.384-0.235-3.575
			c-0.007-0.119-0.016-0.238-0.023-0.356c-0.077-1.319-0.144-2.637-0.201-3.954c-0.252-5.808-3.021-11.203-7.598-14.805
			c-0.433-0.34-0.881-0.655-1.336-0.956c-0.083-0.055-0.165-0.111-0.249-0.165c-0.432-0.277-0.873-0.537-1.323-0.779
			c-0.149-0.081-0.301-0.157-0.452-0.234c-0.414-0.209-0.833-0.409-1.259-0.589c-0.188-0.08-0.38-0.15-0.571-0.224
			c-0.333-0.128-0.668-0.248-1.006-0.358c-0.252-0.082-0.505-0.161-0.762-0.233c-0.379-0.107-0.761-0.202-1.145-0.286
			c-0.193-0.042-0.384-0.087-0.579-0.123c-0.481-0.091-0.967-0.16-1.455-0.216c-0.164-0.018-0.327-0.036-0.492-0.051
			c-0.526-0.047-1.055-0.073-1.586-0.078c-0.06,0-0.118-0.009-0.179-0.009c-0.072,0-0.145,0.01-0.217,0.011
			c-0.547,0.005-1.094,0.03-1.642,0.08c-0.086,0.008-0.171,0.02-0.256,0.029c-0.591,0.062-1.182,0.144-1.77,0.26L28.419,110.301
			c-1.761,0.346-3.431,0.918-4.982,1.683c-6.721,3.314-11.209,10.24-11.194,18.015V130v0.004c0.008,4.09,0.012,8.297,0.013,12.567
			c0,0.088,0,0.176,0,0.264c0,2.091-0.001,4.197-0.002,6.312c0,0.049,0,0.096,0,0.144c-0.009,10.925-0.041,22.091-0.096,32.672
			c-0.021,4.143,3.319,7.518,7.461,7.539c0.014,0,0.026,0,0.04,0c4.124,0,7.478-3.332,7.499-7.461
			c0.039-7.588,0.066-15.478,0.082-23.363l142.504-26.531c3.984,32.452,13.362,64.269,27.498,92.494
			c21.82,43.569,52.705,75.016,89.316,90.941c3.906,1.698,8.122,2.56,12.53,2.56c8.982,0,18.216-3.644,25.333-9.996
			c5.121-4.571,8.752-10.244,10.551-16.283c1.35,0.182,2.705,0.346,4.068,0.479c25.185,2.458,47.321,3.803,65.66,4.847
			c1.011,17.825-0.587,51.102-21.128,81.234c-17.461,2.71-35.166,4.081-53.075,4.081c-51.754,0.002-91.629-11.479-110.792-18.323
			c-4.622-1.651-10.545-3.296-17.606-4.888c-1.182-0.267-2.38-0.528-3.585-0.782c-11.324-2.389-23.762-4.26-32.422-4.882
			l-35.432-2.717c-4.666-61.61-70.532-94.115-104.603-106.874c0.443-10.046,0.75-20.423,0.861-30.956
			c0.043-4.143-3.279-7.535-7.42-7.579c-0.027,0-0.054,0-0.081,0c-4.105,0-7.455,3.307-7.498,7.421
			C11.176,283.645,1.478,347.314,1.38,347.948c-0.023,0.15-0.042,0.302-0.056,0.453C0.343,359.018,0.008,371.334,0,383.081
			c-0.008,11.747,0.311,22.924,0.639,31.264c0.044,1.112,0.088,2.174,0.131,3.179c0.427,9.948,8.562,17.74,18.521,17.74H141.45
			c10.222,0,18.538-8.317,18.538-18.54v-10.76l4.995,0.383c3.741,0.269,8.303,0.796,13.21,1.516
			c12.541,1.841,27.338,4.941,36.467,8.202c2.351,0.84,5.01,1.747,7.939,2.693c0.004,0.001,0.008,0.003,0.012,0.004
			c14.887,4.805,37.05,10.623,64.522,13.91c0.052,0.006,0.104,0.013,0.156,0.019c1.147,0.137,2.308,0.267,3.474,0.395
			c0.293,0.032,0.583,0.066,0.878,0.097c1.004,0.107,2.019,0.209,3.036,0.309c0.469,0.046,0.936,0.094,1.408,0.139
			c0.904,0.086,1.817,0.166,2.731,0.245c0.595,0.052,1.188,0.105,1.787,0.154c0.831,0.068,1.668,0.132,2.507,0.195
			c0.699,0.053,1.399,0.105,2.103,0.154c0.772,0.054,1.55,0.103,2.329,0.153c0.779,0.049,1.559,0.097,2.345,0.142
			c0.736,0.042,1.476,0.08,2.218,0.118c0.84,0.042,1.681,0.083,2.528,0.12c0.713,0.031,1.429,0.06,2.147,0.087
			c0.88,0.033,1.764,0.064,2.652,0.091c0.71,0.022,1.423,0.041,2.138,0.059c0.431,0.01,0.856,0.026,1.289,0.035
			c0.288,0.006,0.575,0.004,0.864,0.009c2.239,0.042,4.491,0.071,6.775,0.071c0.004,0,0.007,0,0.01,0
			c0.031,0,0.062,0.001,0.093,0.001c56.149,0,110.542-12.879,161.788-38.322c10.585-5.255,17.661-15.23,19.264-26.745
			c0.229-1.645,0.346-3.321,0.346-5.02v-20.825C511.999,301.081,492.563,290.448,456.698,285.963z M27.256,143.418
			c0-0.081,0-0.159,0-0.24c0-0.376,0-0.749,0-1.123c0-4.269-0.005-8.326-0.012-12.085c-0.001-0.301,0.026-0.596,0.077-0.884
			c0.357-2.015,1.925-3.66,3.992-4.066l112.707-22.154l23.553-4.63c0.03,6.302,0.276,12.617,0.723,18.925L27.256,143.418z
			 M314.433,296.958c-4.34,3.874-10.077,6.187-15.345,6.187c-2.338,0-4.541-0.442-6.547-1.315
			c-64.949-28.252-110.595-114.487-109.975-206.54l17.574-3.454c0.222-0.044,0.435-0.067,0.644-0.082
			c0.099-0.007,0.197-0.007,0.296-0.008c0.093-0.001,0.185-0.001,0.275,0.002c0.143,0.007,0.285,0.018,0.425,0.038
			c0.024,0.003,0.048,0.006,0.071,0.01c2.326,0.354,4.184,2.356,4.293,4.856c0.044,1.004,0.099,2.01,0.154,3.015
			c0.087,1.599,0.186,3.198,0.301,4.797c0.003,0.047,0.006,0.095,0.009,0.142c0.311,4.296,0.718,8.593,1.222,12.883l-12.684,2.869
			c-4.041,0.914-6.575,4.93-5.661,8.97c0.788,3.483,3.881,5.848,7.309,5.848c0.548,0,1.104-0.061,1.661-0.187l11.519-2.605
			c1.727,10.191,3.976,20.268,6.716,30.089l-12.226,3.77c-3.958,1.221-6.178,5.418-4.958,9.377c0.993,3.222,3.96,5.292,7.165,5.292
			c0.732,0,1.476-0.108,2.212-0.335l12.219-3.767c2.666,7.915,5.653,15.604,8.94,22.99c0.102,0.229,0.203,0.459,0.305,0.688
			c0.354,0.789,0.713,1.574,1.074,2.356c0.211,0.458,0.422,0.916,0.635,1.371c0.283,0.603,0.568,1.202,0.855,1.8
			c0.296,0.618,0.593,1.234,0.893,1.847c0.232,0.473,0.466,0.944,0.7,1.415c0.107,0.215,0.213,0.432,0.32,0.647l-10.934,5.895
			c-3.646,1.966-5.008,6.515-3.042,10.161c1.355,2.514,3.939,3.941,6.608,3.941c1.202,0,2.421-0.289,3.553-0.899l11.007-5.934
			c0.436,0.736,0.876,1.463,1.318,2.188c0.241,0.395,0.481,0.791,0.723,1.183c0.544,0.879,1.093,1.747,1.646,2.61
			c0.211,0.33,0.421,0.664,0.634,0.992c0.631,0.972,1.268,1.93,1.91,2.881c0.143,0.212,0.284,0.429,0.427,0.64
			c0.772,1.134,1.552,2.254,2.339,3.357c0.306,0.43,0.619,0.847,0.927,1.272c0.467,0.643,0.934,1.287,1.406,1.919
			c0.453,0.607,0.912,1.201,1.37,1.797c0.326,0.424,0.65,0.85,0.978,1.27c0.138,0.177,0.274,0.36,0.413,0.536l-9.451,7.893
			c-3.179,2.655-3.604,7.385-0.949,10.564c1.484,1.776,3.614,2.692,5.761,2.692c1.695,0,3.4-0.571,4.804-1.743l9.667-8.073
			c7.189,7.534,14.842,13.984,22.911,19.311l-5.815,10.191c-2.053,3.598-0.8,8.178,2.797,10.23c1.173,0.67,2.45,0.987,3.71,0.987
			c2.605,0,5.137-1.359,6.521-3.784l5.81-10.181c5.647,2.754,11.465,5,17.44,6.733c0.302,0.084,0.6,0.18,0.901,0.265
			C319.107,291.754,317.145,294.537,314.433,296.958z M25.252,259.799c31.488,12.443,84.88,40.624,90.241,89.952l-98.154-7.526
			C19.232,328.215,23.045,297.179,25.252,259.799z M496.997,365.182c0.002,7.729-4.426,14.924-11.279,18.326
			c-1.784,0.886-3.565,1.748-5.344,2.595c-0.45,0.214-0.9,0.423-1.35,0.636c-1.428,0.673-2.854,1.336-4.278,1.985
			c-0.352,0.16-0.704,0.32-1.056,0.479c-116.442,52.566-220.166,24.528-252.366,13.308c-0.552-0.193-1.096-0.384-1.618-0.571
			c-14.047-5.017-39.081-9.507-53.613-10.551l-13.032-0.999c-0.26-0.02-0.52-0.026-0.778-0.019c-1.811,0.049-3.55,0.754-4.892,1.996
			c-1.532,1.419-2.403,3.413-2.403,5.502v18.856c0,1.952-1.587,3.54-3.538,3.54H19.291c-1.901,0-3.453-1.486-3.535-3.384
			c-0.02-0.458-0.04-0.931-0.059-1.413c-0.008-0.198-0.016-0.404-0.025-0.605c-0.012-0.295-0.024-0.589-0.036-0.892
			c-0.009-0.22-0.017-0.446-0.026-0.67c-0.012-0.298-0.023-0.597-0.035-0.901c-0.009-0.233-0.018-0.471-0.026-0.708
			c-0.011-0.309-0.023-0.621-0.034-0.936c-0.009-0.242-0.017-0.487-0.026-0.732c-0.011-0.32-0.022-0.645-0.033-0.971
			c-0.008-0.25-0.017-0.501-0.025-0.755c-0.011-0.338-0.022-0.681-0.033-1.026c-0.008-0.241-0.015-0.481-0.023-0.725
			c-0.012-0.395-0.024-0.796-0.036-1.199c-0.006-0.21-0.013-0.418-0.019-0.631c-0.013-0.447-0.025-0.901-0.038-1.356
			c-0.005-0.179-0.01-0.354-0.015-0.534c-0.016-0.616-0.032-1.24-0.048-1.87c-0.006-0.228-0.011-0.46-0.016-0.69
			c-0.01-0.427-0.02-0.854-0.029-1.286c-0.006-0.254-0.011-0.511-0.016-0.767c-0.009-0.406-0.017-0.813-0.025-1.224
			c-0.005-0.278-0.01-0.558-0.016-0.838c-0.007-0.396-0.014-0.794-0.021-1.194c-0.005-0.304-0.01-0.609-0.015-0.915
			c-0.006-0.363-0.011-0.728-0.016-1.093c-0.005-0.337-0.009-0.674-0.014-1.013c-0.005-0.36-0.009-0.721-0.013-1.083
			c-0.004-0.335-0.007-0.671-0.011-1.008c-0.004-0.377-0.007-0.756-0.01-1.135c-0.003-0.327-0.005-0.652-0.008-0.98
			c-0.003-0.383-0.004-0.768-0.006-1.152c-0.002-0.336-0.004-0.671-0.005-1.008c-0.001-0.397-0.002-0.796-0.002-1.195
			c-0.001-0.637-0.001-1.275,0-1.915c0.001-0.361,0.001-0.722,0.002-1.084c0.001-0.389,0.004-0.78,0.006-1.169
			c0.002-0.328,0.003-0.656,0.006-0.984c0.003-0.399,0.007-0.798,0.01-1.197c0.003-0.324,0.006-0.648,0.01-0.972
			c0.004-0.393,0.009-0.787,0.015-1.18c0.004-0.33,0.009-0.659,0.014-0.989c0.006-0.404,0.013-0.808,0.02-1.212
			c0.005-0.308,0.011-0.616,0.017-0.924c0.008-0.421,0.017-0.842,0.026-1.263c0.006-0.285,0.013-0.569,0.02-0.853
			c0.011-0.44,0.021-0.881,0.033-1.32c0.007-0.253,0.014-0.504,0.022-0.757c0.013-0.466,0.027-0.932,0.042-1.396
			c0.005-0.169,0.012-0.336,0.017-0.505c0.058-1.747,0.128-3.481,0.209-5.193c0.007-0.148,0.013-0.297,0.021-0.445
			c0.024-0.487,0.049-0.97,0.075-1.454c0.011-0.205,0.022-0.411,0.033-0.615c0.026-0.466,0.053-0.929,0.081-1.392
			c0.008-0.136,0.016-0.273,0.025-0.409l149.281,11.446c8.066,0.579,19.729,2.342,30.438,4.601c1.138,0.239,2.267,0.486,3.381,0.737
			c6.379,1.438,11.862,2.953,15.858,4.38c20.077,7.171,61.823,19.201,115.838,19.198c56.768-0.002,111.561-13.098,163.118-38.939
			c0.227-0.113,0.453-0.229,0.679-0.343c0.902-0.454,1.805-0.903,2.704-1.365V365.182z"/>
	</g>
</g>
<g>
</g>
<g>
</g>
<g>
</g>
<g>
</g>
<g>
</g>
<g>
</g>
<g>
</g>
<g>
</g>
<g>
</g>
<g>
</g>
<g>
</g>
<g>
</g>
<g>
</g>
<g>
</g>
<g>
</g>
</svg>
