<?xml version="1.0" encoding="iso-8859-1"?>
<!-- Generator: Adobe Illustrator 19.0.0, SVG Export Plug-In . SVG Version: 6.00 Build 0)  -->
<svg version="1.1" id="Layer_1" xmlns="http://www.w3.org/2000/svg" xmlns:xlink="http://www.w3.org/1999/xlink" x="0px" y="0px"
	 viewBox="0 0 512 512" style="enable-background:new 0 0 512 512;" xml:space="preserve">
<g>
	<g>
		<g>
			<path d="M475.431,44.848h-9.871V28.391C465.56,12.736,452.824,0,437.17,0H280.113c-4.142,0-7.5,3.357-7.5,7.5s3.358,7.5,7.5,7.5
				H437.17c7.383,0,13.39,6.007,13.39,13.391v47.913c0,7.384-6.007,13.391-13.39,13.391H197.818
				c11.966-3.165,20.817-14.109,20.817-27.09V15h31.032c4.142,0,7.5-3.357,7.5-7.5s-3.358-7.5-7.5-7.5h-38.532H47.656h-9.138
				C22.863,0,10.127,12.736,10.127,28.391v47.914c0,15.654,12.736,28.39,28.39,28.39h3.596
				c4.097,10.373,14.193,17.733,25.977,17.733s21.88-7.359,25.977-17.732h27.827v16.6c0,15.447,12.532,28.015,27.935,28.015
				s27.935-12.567,27.935-28.015v-16.6h259.405c15.654,0,28.39-12.736,28.39-28.391V59.848h9.871c6.31,0,11.443,5.166,11.443,11.517
				v69.576c0,5.611-4.358,10.274-9.921,10.616l-222.609,13.692c-13.458,0.828-24,12.067-24,25.589v34.663c0,4.143,3.358,7.5,7.5,7.5
				c4.142,0,7.5-3.357,7.5-7.5v-34.663c0-5.611,4.358-10.274,9.921-10.616l222.609-13.692c13.458-0.828,24-12.067,24-25.589V71.364
				C501.875,56.743,490.012,44.848,475.431,44.848z M40.156,89.694h-1.638c-7.384,0-13.391-6.006-13.391-13.389V28.391
				C25.127,21.007,31.134,15,38.518,15h1.638V89.694z M121.87,89.694H96.051c0.264-6.945,5.944-12.517,12.91-12.517
				c7.133,0,12.935,5.839,12.935,13.016C121.896,90.025,121.877,89.861,121.87,89.694z M177.765,89.695v-2.264
				c1.834,0.965,3.792,1.724,5.837,2.264H177.765z M177.765,62.604c0-4.142-3.358-7.5-7.5-7.5c-4.142,0-7.5,3.357-7.5,7.5v58.689
				c0,7.177-5.802,13.015-12.935,13.015c-7.132,0-12.935-5.838-12.935-13.015v-31.1c0-15.448-12.532-28.016-27.935-28.016
				c-15.403,0-27.934,12.568-27.934,28.016v4.219c0,7.177-5.803,13.015-12.935,13.015c-7.132,0-12.935-5.838-12.935-13.015V15
				h148.479v47.604c0,7.177-5.803,13.015-12.935,13.015C183.568,75.619,177.765,69.781,177.765,62.604z"/>
			<path d="M277.795,271.396h-32.452V256.17c0-4.143-3.358-7.5-7.5-7.5c-4.142,0-7.5,3.357-7.5,7.5v15.226h-32.452
				c-7.51,0-13.62,6.11-13.62,13.62v18.377c0,7.51,6.11,13.62,13.62,13.62h5.055v180.784c0,7.832,6.372,14.203,14.203,14.203h41.388
				c7.832,0,14.203-6.371,14.203-14.203V317.013h5.055c7.51,0,13.62-6.11,13.62-13.62v-18.377
				C291.415,277.506,285.305,271.396,277.795,271.396z M257.741,497h-39.794v-23.496h39.794V497z M257.741,458.504h-39.794V431.34
				h39.794V458.504z M257.741,416.34h-39.794v-27.163h39.794V416.34z M257.741,374.177h-39.794v-27.164h39.794V374.177z
				 M257.741,332.013h-39.794v-15h39.794V332.013z M276.416,302.013L276.416,302.013h-11.175h-54.794h-11.174v-15.617h77.143
				V302.013z"/>
		</g>
	</g>
</g>
<g>
</g>
<g>
</g>
<g>
</g>
<g>
</g>
<g>
</g>
<g>
</g>
<g>
</g>
<g>
</g>
<g>
</g>
<g>
</g>
<g>
</g>
<g>
</g>
<g>
</g>
<g>
</g>
<g>
</g>
</svg>
