<?xml version="1.0" encoding="iso-8859-1"?>
<!-- Generator: Adobe Illustrator 19.0.0, SVG Export Plug-In . SVG Version: 6.00 Build 0)  -->
<svg version="1.1" id="Layer_1" xmlns="http://www.w3.org/2000/svg" xmlns:xlink="http://www.w3.org/1999/xlink" x="0px" y="0px"
	 viewBox="0 0 512 512" style="enable-background:new 0 0 512 512;" xml:space="preserve">
<g>
	<g>
		<path d="M477.93,139.141H360.2V94.537c0-18.977-15.438-34.416-34.416-34.416H186.216c-18.978,0-34.416,15.439-34.416,34.416
			v44.604H34.07C15.284,139.141,0,154.424,0,173.21v47.711c0,8.43,6.858,15.288,15.288,15.288h2.271v181.6
			c0,18.786,15.284,34.07,34.07,34.07h408.742c18.786,0,34.07-15.284,34.07-34.07v-181.6h2.271c8.43,0,15.288-6.858,15.288-15.288
			V173.21C512,154.424,496.716,139.141,477.93,139.141z M166.8,94.537c0-10.706,8.71-19.416,19.416-19.416h139.568
			c10.706,0,19.416,8.71,19.416,19.416v44.604h-10.919V94.537c0-4.686-3.812-8.497-8.497-8.497H186.216
			c-4.686,0-8.497,3.812-8.497,8.497v44.604H166.8V94.537z M319.282,101.04v38.101H192.719V101.04H319.282z M479.444,417.809h-0.003
			c0,10.516-8.555,19.07-19.07,19.07H51.629c-10.516,0-19.07-8.555-19.07-19.07v-181.6h61.407v30.02
			c0,10.189,8.289,18.479,18.478,18.479h32.386c10.189,0,18.479-8.289,18.479-18.479v-30.02h185.385v30.02
			c0,10.189,8.289,18.479,18.479,18.479h32.386c10.188,0,18.478-8.289,18.478-18.479v-30.02h61.407V417.809z M108.965,266.229
			v-37.52v-22.004c0-1.918,1.56-3.479,3.478-3.479h32.386c1.918,0,3.479,1.561,3.479,3.479v22.004v37.52
			c0,1.918-1.561,3.479-3.479,3.479h-32.386C110.525,269.708,108.965,268.147,108.965,266.229z M363.691,266.229v-37.52v-22.004
			c0-1.918,1.561-3.479,3.479-3.479h32.386c1.918,0,3.478,1.561,3.478,3.479v22.004v37.52c0,1.918-1.56,3.479-3.478,3.479H367.17
			C365.252,269.708,363.691,268.147,363.691,266.229z M497,220.921c0,0.159-0.129,0.288-0.288,0.288h-9.771h-68.907v-14.504
			c0-10.189-8.289-18.479-18.478-18.479H367.17c-10.189,0-18.479,8.289-18.479,18.479v14.504H163.308v-14.504
			c0-10.189-8.289-18.479-18.479-18.479h-32.386c-10.188,0-18.478,8.289-18.478,18.479v14.504H25.059h-9.771
			c-0.159,0-0.288-0.129-0.288-0.288V173.21c0-10.515,8.555-19.069,19.07-19.069h443.86c10.516,0,19.07,8.555,19.07,19.069V220.921z
			"/>
	</g>
</g>
<g>
</g>
<g>
</g>
<g>
</g>
<g>
</g>
<g>
</g>
<g>
</g>
<g>
</g>
<g>
</g>
<g>
</g>
<g>
</g>
<g>
</g>
<g>
</g>
<g>
</g>
<g>
</g>
<g>
</g>
</svg>
