<?xml version="1.0" encoding="iso-8859-1"?>
<!-- Generator: Adobe Illustrator 19.0.0, SVG Export Plug-In . SVG Version: 6.00 Build 0)  -->
<svg version="1.1" id="Layer_1" xmlns="http://www.w3.org/2000/svg" xmlns:xlink="http://www.w3.org/1999/xlink" x="0px" y="0px"
	 viewBox="0 0 512 512" style="enable-background:new 0 0 512 512;" xml:space="preserve">
<g>
	<g>
		<path d="M483.646,74.56h-1.924h-7.555V60.814c0-6.45-5.248-11.698-11.699-11.698h-1.138l-4.148-32.397
			C455.963,7.187,447.802,0,438.2,0h-23.757c-9.602,0-17.763,7.187-18.984,16.719l-4.148,32.397h-1.138
			c-6.451,0-11.699,5.248-11.699,11.698V74.56h-58.968c-4.094,0-7.414,3.318-7.414,7.414c0,4.095,3.319,7.414,7.414,7.414h5.942
			l-70.343,109.578H211.43l70.344-109.578h7.771c4.094,0,7.414-3.318,7.414-7.414c0-4.095-3.319-7.414-7.414-7.414h-66.093h-78.915
			h-9.305V60.814c0-6.45-5.248-11.698-11.698-11.698h-1.139l-4.148-32.397C117.028,7.187,108.867,0,99.265,0H75.508
			c-9.602,0-17.763,7.187-18.984,16.719l-4.147,32.397h-1.139c-6.45,0-11.698,5.248-11.698,11.698V74.56h-11.19H28.34
			c-6.913,0-13.187,2.784-17.771,7.286c-0.056,0.055-0.117,0.109-0.172,0.165c-0.062,0.062-0.121,0.128-0.182,0.191
			c-4.49,4.584-7.264,10.853-7.264,17.761v0.012v88.406v0.012c0,3.007,0.529,5.892,1.492,8.572L7.631,209.6l2.361-3.679
			c4.628,4.846,11.145,7.874,18.359,7.874h24.032v26.831H28.352H28.34c-0.005,0-0.011,0.001-0.016,0.001
			c-0.694,0.001-1.38,0.037-2.059,0.092c-0.09,0.008-0.179,0.012-0.269,0.021c-0.682,0.063-1.354,0.155-2.019,0.272
			c-0.069,0.012-0.137,0.025-0.207,0.038c-0.699,0.128-1.388,0.283-2.065,0.467c-0.011,0.003-0.023,0.007-0.034,0.01
			c-2.142,0.585-4.17,1.443-6.049,2.536c-0.049,0.029-0.098,0.056-0.147,0.085c-0.583,0.345-1.152,0.713-1.704,1.102
			c-0.079,0.056-0.158,0.113-0.237,0.169c-0.536,0.386-1.056,0.791-1.559,1.217c-0.034,0.029-0.071,0.053-0.105,0.082l-0.831,0.711
			l-0.067,0.104c-3.027,2.845-5.355,6.421-6.704,10.444l-0.034,0.052l-0.083,0.293c-0.595,1.863-0.976,3.82-1.124,5.842
			c-0.006,0.077-0.013,0.154-0.018,0.232c-0.035,0.542-0.058,1.086-0.058,1.636v0.012v88.406v0.012c0,1.733,0.176,3.425,0.508,5.061
			l6.535,12.467c4.628,4.846,11.145,7.874,18.359,7.874h24.032v30.403c0,4.095,3.319,7.414,7.414,7.414s7.414-3.318,7.414-7.414
			v-30.403h40.353v113.281c0,2.225-1.811,4.036-4.036,4.036H71.247c-2.225,0-4.036-1.811-4.036-4.036v-52.917
			c0-4.095-3.319-7.414-7.414-7.414c-4.094,0-7.414,3.318-7.414,7.414v52.91c0,10.401,8.462,18.863,18.863,18.863h32.281
			c10.401,0,18.863-8.462,18.863-18.863v-113.28h11.682h50.22h78.915h50.22h77.891v113.281c0,10.401,8.462,18.863,18.863,18.863
			h32.281c10.401,0,18.863-8.462,18.863-18.863V379.856h22.321c14.007,0,25.402-11.395,25.402-25.402v-0.016v-78.15v-10.264
			c0-14.007-11.395-25.402-25.402-25.402h-1.924h-20.397v-26.831h22.32h0.012c0.019,0,0.037-0.002,0.055-0.002
			c0.467-0.001,0.929-0.017,1.389-0.043c0.165-0.01,0.329-0.025,0.494-0.038c0.319-0.025,0.638-0.052,0.954-0.089
			c0.183-0.021,0.364-0.044,0.546-0.069c0.303-0.042,0.604-0.089,0.904-0.14c0.178-0.031,0.355-0.061,0.532-0.095
			c0.32-0.062,0.637-0.133,0.952-0.209c0.15-0.036,0.301-0.066,0.451-0.104c0.435-0.112,0.867-0.233,1.293-0.367
			c0.203-0.063,0.402-0.136,0.604-0.205c0.229-0.078,0.459-0.155,0.685-0.24c0.247-0.092,0.49-0.191,0.734-0.29
			c0.165-0.068,0.33-0.136,0.494-0.208c0.275-0.119,0.548-0.241,0.817-0.37c0.094-0.045,0.187-0.093,0.281-0.138
			c3.21-1.577,6.077-3.828,8.399-6.646c0.001-0.001,0.001-0.001,0.002-0.002c0.515-0.625,1.01-1.268,1.469-1.947
			c0.124-0.184,0.231-0.376,0.35-0.562c0.141-0.22,0.282-0.443,0.416-0.668c0.131-0.221,0.261-0.445,0.387-0.67
			c0.18-0.323,0.352-0.652,0.518-0.984c0.105-0.211,0.208-0.422,0.306-0.637c0.174-0.374,0.339-0.752,0.494-1.135
			c0.066-0.163,0.131-0.327,0.195-0.492c0.188-0.489,0.365-0.984,0.523-1.487c0.003-0.009,0.006-0.017,0.009-0.025
			c0.005-0.015,0.007-0.03,0.012-0.044c0.163-0.529,0.304-1.067,0.434-1.609c0.03-0.125,0.058-0.248,0.086-0.373
			c0.125-0.559,0.236-1.125,0.322-1.697c0.001-0.004,0.001-0.008,0.002-0.012c0.084-0.557,0.144-1.123,0.191-1.691
			c0.011-0.131,0.021-0.262,0.03-0.393c0.039-0.568,0.064-1.141,0.064-1.72v-0.012v-78.153V99.964
			C509.047,85.956,497.653,74.56,483.646,74.56z M410.167,18.601c0.275-2.151,2.113-3.774,4.276-3.774H438.2
			c2.163,0,4.001,1.623,4.276,3.774l3.906,30.515h-40.122L410.167,18.601z M393.302,63.943L393.302,63.943h4.535h56.969h4.534
			v10.612h-66.038V63.943z M454.585,89.388l-70.343,109.578h-43.677l70.343-109.578H454.585z M343.069,89.388h50.22l-70.344,109.578
			h-50.22L343.069,89.388z M263.207,213.793h50.22h77.891v26.831h-38.731h-78.915h-50.22h-78.915H122.39v-26.831h11.682h50.22
			H263.207z M264.154,89.388L193.81,198.966h-50.22l70.344-109.578H264.154z M152.637,89.388h43.677l-70.343,109.578H82.295
			L152.637,89.388z M107.563,213.793v26.831H94.317H67.21v-26.831H107.563z M71.232,18.601c0.275-2.151,2.114-3.774,4.276-3.774
			h23.757c2.163,0,4,1.623,4.276,3.774l3.906,30.515H67.325L71.232,18.601z M54.367,63.943h4.534h56.969h4.534v10.612H54.367V63.943
			z M17.776,99.974c0-3.073,1.322-5.836,3.415-7.772c1.886-1.741,4.396-2.814,7.159-2.814h38.829l-49.403,76.957V99.974z
			 M28.351,198.966c-4.375,0-8.138-2.671-9.744-6.468l66.192-103.11h50.22L64.675,198.966H28.351z M17.776,266.037
			c0-0.166,0.017-0.334,0.025-0.501c0.008-0.161,0.01-0.324,0.025-0.483c0.033-0.326,0.08-0.654,0.144-0.983l4.278-6.665
			c0.022-0.015,0.042-0.033,0.064-0.047c0.098-0.069,0.204-0.137,0.308-0.206c0.183-0.119,0.369-0.232,0.558-0.34
			c0.059-0.034,0.116-0.069,0.177-0.103c0.281-0.151,0.569-0.292,0.865-0.417c0.02-0.009,0.042-0.016,0.061-0.025
			c0.287-0.12,0.579-0.227,0.877-0.321c0.034-0.011,0.068-0.021,0.102-0.032c0.294-0.09,0.592-0.166,0.896-0.23
			c0.034-0.007,0.066-0.016,0.1-0.022c0.31-0.062,0.627-0.11,0.946-0.144c0.03-0.003,0.056-0.009,0.086-0.012
			c0.35-0.035,0.705-0.053,1.064-0.053h38.826l-49.402,76.956V266.037z M64.675,365.029H28.351c-4.375,0-8.138-2.671-9.744-6.468
			l66.192-103.111h50.22L64.675,365.029z M125.971,365.029H82.295l70.343-109.578h43.677L125.971,365.029z M143.59,365.029
			l70.344-109.578h50.22L193.81,365.029H143.59z M255.107,365.029H211.43l70.344-109.578h43.677L255.107,365.029z M272.725,365.029
			l70.344-109.578h50.22l-70.344,109.578H272.725z M384.242,365.029h-43.677l70.343-109.578h43.677L384.242,365.029z
			 M446.498,240.624h-40.353v-26.831h36.418h3.935V240.624z M446.499,493.137L446.499,493.137c-0.001,2.225-1.812,4.036-4.037,4.036
			h-32.281c-2.225,0-4.036-1.811-4.036-4.036V379.856h40.353V493.137z M494.22,354.438c0,5.837-4.739,10.586-10.563,10.586h-13.953
			l24.516-38.192V354.438z M472.206,255.451h11.441c5.831,0,10.575,4.744,10.575,10.575v33.361l-42.139,65.642h-50.22
			L472.206,255.451z M494.22,188.379c0,0.015-0.002,0.029-0.002,0.044c-0.001,0.314-0.019,0.624-0.047,0.931
			c-0.009,0.099-0.022,0.196-0.033,0.295c-0.029,0.239-0.064,0.475-0.109,0.71c-0.016,0.083-0.03,0.166-0.047,0.248
			c-0.073,0.343-0.163,0.68-0.27,1.009c-0.126,0.393-0.282,0.776-0.453,1.153c-0.059,0.129-0.122,0.258-0.186,0.385
			c-0.173,0.341-0.362,0.675-0.571,0.997c-0.088,0.134-0.181,0.265-0.275,0.395c-0.16,0.222-0.323,0.441-0.498,0.648
			c-0.121,0.143-0.249,0.278-0.377,0.414c-0.136,0.145-0.275,0.288-0.418,0.424c-0.141,0.134-0.286,0.268-0.434,0.394
			c-0.15,0.128-0.305,0.248-0.462,0.367c-0.148,0.114-0.295,0.23-0.449,0.336c-0.296,0.202-0.599,0.389-0.912,0.559
			c-0.127,0.069-0.26,0.125-0.389,0.188c-0.223,0.11-0.447,0.216-0.677,0.309c-0.147,0.06-0.299,0.112-0.449,0.165
			c-0.226,0.08-0.454,0.153-0.686,0.217c-0.15,0.042-0.301,0.082-0.454,0.117c-0.251,0.058-0.506,0.103-0.763,0.143
			c-0.136,0.021-0.272,0.047-0.41,0.062c-0.376,0.042-0.755,0.068-1.138,0.07c-0.023,0-0.044,0.003-0.066,0.003h-13.944
			l24.518-38.196V188.379z M494.221,133.323l-42.14,65.642h-50.22l70.344-109.578h11.442c5.831,0,10.575,4.744,10.575,10.575
			V133.323z"/>
	</g>
</g>
<g>
</g>
<g>
</g>
<g>
</g>
<g>
</g>
<g>
</g>
<g>
</g>
<g>
</g>
<g>
</g>
<g>
</g>
<g>
</g>
<g>
</g>
<g>
</g>
<g>
</g>
<g>
</g>
<g>
</g>
</svg>
