<?xml version="1.0" encoding="iso-8859-1"?>
<!-- Generator: Adobe Illustrator 19.0.0, SVG Export Plug-In . SVG Version: 6.00 Build 0)  -->
<svg version="1.1" id="Layer_1" xmlns="http://www.w3.org/2000/svg" xmlns:xlink="http://www.w3.org/1999/xlink" x="0px" y="0px"
	 viewBox="0 0 512 512" style="enable-background:new 0 0 512 512;" xml:space="preserve">
<g>
	<g>
		<g>
			<path d="M46.038,226.875c4.143,0,7.5-3.357,7.5-7.5V54.185h404.924v165.146c0,4.143,3.357,7.5,7.5,7.5s7.5-3.357,7.5-7.5V53.892
				c0-8.109-6.597-14.707-14.706-14.707H53.244c-8.109,0-14.706,6.598-14.706,14.707v165.483
				C38.538,223.518,41.896,226.875,46.038,226.875z"/>
			<path d="M242.997,94.405c0-9.807-7.979-17.785-17.785-17.785H96.518c-9.807,0-17.785,7.979-17.785,17.785v111.563
				c0,9.807,7.979,17.785,17.785,17.785h128.694c9.807,0,17.785-7.979,17.785-17.785V94.405z M227.997,205.968
				c0,1.536-1.249,2.785-2.785,2.785H96.518c-1.536,0-2.785-1.249-2.785-2.785V94.405c0-1.536,1.249-2.785,2.785-2.785h128.694
				c1.536,0,2.785,1.249,2.785,2.785V205.968z"/>
			<path d="M433.267,94.405L433.267,94.405c0.001-9.807-7.978-17.785-17.784-17.785H286.788c-9.807,0-17.785,7.979-17.785,17.785
				v111.563c0,9.807,7.979,17.785,17.785,17.785h128.694c9.807,0,17.785-7.979,17.785-17.785V94.405z M415.483,208.753H286.788
				c-1.536,0-2.785-1.249-2.785-2.785V94.405c0-1.536,1.249-2.785,2.785-2.785h128.694c1.536,0,2.785,1.249,2.785,2.785v111.563
				h0.001C418.268,207.504,417.019,208.753,415.483,208.753z"/>
			<path d="M225.212,240.761H96.518c-9.807,0-17.785,7.978-17.785,17.784v111.563c0,9.807,7.979,17.785,17.785,17.785h128.694
				c9.807,0,17.785-7.979,17.785-17.785V258.545C242.997,248.738,235.019,240.761,225.212,240.761z M227.997,370.108
				c0,1.536-1.249,2.785-2.785,2.785H96.518c-1.536,0-2.785-1.249-2.785-2.785V258.545c0-1.535,1.249-2.784,2.785-2.784h128.694
				c1.536,0,2.785,1.249,2.785,2.784V370.108z"/>
			<path d="M286.788,240.761c-9.807,0-17.785,7.978-17.785,17.784v111.563c0,9.807,7.979,17.785,17.785,17.785h128.694
				c9.807,0,17.785-7.979,17.785-17.785V258.546c0.001-9.807-7.978-17.785-17.785-17.785H286.788z M418.267,258.546v111.562h0.001
				c0,1.536-1.249,2.785-2.785,2.785H286.788c-1.536,0-2.785-1.249-2.785-2.785V258.545c0-1.535,1.249-2.784,2.785-2.784h128.694
				C417.018,255.761,418.267,257.01,418.267,258.546z"/>
			<path d="M497.293,410.328h-23.831V249.682c0-4.143-3.357-7.5-7.5-7.5s-7.5,3.357-7.5,7.5v160.646H53.538V249.667
				c0-4.143-3.357-7.5-7.5-7.5s-7.5,3.357-7.5,7.5v160.661H14.707C6.598,410.328,0,416.926,0,425.035v33.073
				c0,8.109,6.598,14.707,14.707,14.707h482.586c8.109,0,14.707-6.598,14.707-14.707v-33.073
				C512,416.926,505.402,410.328,497.293,410.328z M497,457.815H15v-32.487h482V457.815z"/>
		</g>
	</g>
</g>
<g>
</g>
<g>
</g>
<g>
</g>
<g>
</g>
<g>
</g>
<g>
</g>
<g>
</g>
<g>
</g>
<g>
</g>
<g>
</g>
<g>
</g>
<g>
</g>
<g>
</g>
<g>
</g>
<g>
</g>
</svg>
