<?xml version="1.0" encoding="iso-8859-1"?>
<!-- Generator: Adobe Illustrator 19.0.0, SVG Export Plug-In . SVG Version: 6.00 Build 0)  -->
<svg version="1.1" id="Layer_1" xmlns="http://www.w3.org/2000/svg" xmlns:xlink="http://www.w3.org/1999/xlink" x="0px" y="0px"
	 viewBox="0 0 512 512" style="enable-background:new 0 0 512 512;" xml:space="preserve">
<g>
	<g>
		<g>
			<path d="M256.001,365.484c-16.084,0-28.213,12.582-28.213,29.269c0,16.68,11.975,29.259,27.857,29.259H256
				c16.347,0,28.213-12.304,28.214-29.259C284.214,377.52,272.613,365.484,256.001,365.484z M255.999,409.013h-0.355
				c-7.57,0-12.857-5.864-12.857-14.259c0-8.402,5.434-14.269,13.213-14.269c9.742,0,13.213,7.371,13.212,14.269
				C269.213,401.331,265.752,409.013,255.999,409.013z"/>
			<path d="M234.959,177.272c-2.112,2.174-3.274,5.155-3.188,8.184l4.682,160.937c0.182,6.141,5.139,10.951,11.283,10.951h16.529
				c6.145,0,11.1-4.811,11.283-10.956l4.681-160.937c0.086-3.024-1.075-6.006-3.188-8.179c-2.114-2.175-5.065-3.423-8.096-3.423
				h-25.892C240.023,173.85,237.072,175.096,234.959,177.272z M265.125,188.849l-4.465,153.497h-9.321l-4.465-153.497H265.125z"/>
			<path d="M509.849,455.99l-79.361-137.445c-2.071-3.588-6.66-4.815-10.245-2.745c-3.587,2.071-4.816,6.658-2.745,10.245
				l79.362,137.446c0.068,0.118,0.25,0.432,0,0.864c-0.25,0.433-0.613,0.433-0.75,0.433H15.89c-0.137,0-0.5,0-0.75-0.433
				c-0.25-0.432-0.068-0.746,0-0.864l84.411-146.189c2.071-3.587,0.842-8.174-2.745-10.245c-3.585-2.071-8.174-0.842-10.245,2.745
				L2.151,455.99c-2.868,4.967-2.868,10.896,0,15.863c2.868,4.967,8.004,7.933,13.739,7.933h480.221
				c5.736,0,10.871-2.966,13.739-7.933C512.717,466.886,512.717,460.957,509.849,455.99z"/>
			<path d="M104.457,293.805c3.587,2.071,8.174,0.841,10.245-2.745L255.251,47.647c0.068-0.118,0.25-0.433,0.75-0.433
				s0.681,0.314,0.75,0.433l145.619,252.195c1.389,2.406,3.91,3.751,6.502,3.751c1.272,0,2.563-0.325,3.744-1.006
				c3.587-2.071,4.816-6.658,2.745-10.245L269.739,40.147c-2.868-4.967-8.004-7.933-13.739-7.933s-10.871,2.965-13.739,7.932
				L101.713,283.559C99.641,287.147,100.87,291.734,104.457,293.805z"/>
			<path d="M256,102.011c-5.736,0-10.871,2.966-13.739,7.933L62.602,421.091c-2.868,4.967-2.868,10.896,0,15.864
				c2.868,4.968,8.004,7.933,13.739,7.933H435.66c5.736,0,10.871-2.965,13.739-7.933c2.868-4.968,2.868-10.897,0-15.864
				l-179.66-311.148C266.872,104.977,261.735,102.011,256,102.011z M436.409,429.456c-0.25,0.433-0.613,0.433-0.75,0.433H76.341
				c-0.137,0-0.5,0-0.75-0.433s-0.068-0.747,0-0.864l179.659-311.149c0.068-0.118,0.25-0.433,0.75-0.433s0.681,0.314,0.75,0.433
				l179.658,311.148C436.477,428.709,436.659,429.023,436.409,429.456z"/>
		</g>
	</g>
</g>
<g>
</g>
<g>
</g>
<g>
</g>
<g>
</g>
<g>
</g>
<g>
</g>
<g>
</g>
<g>
</g>
<g>
</g>
<g>
</g>
<g>
</g>
<g>
</g>
<g>
</g>
<g>
</g>
<g>
</g>
</svg>
