<?xml version="1.0" encoding="iso-8859-1"?>
<!-- Generator: Adobe Illustrator 19.0.0, SVG Export Plug-In . SVG Version: 6.00 Build 0)  -->
<svg version="1.1" id="Layer_1" xmlns="http://www.w3.org/2000/svg" xmlns:xlink="http://www.w3.org/1999/xlink" x="0px" y="0px"
	 viewBox="0 0 512.001 512.001" style="enable-background:new 0 0 512.001 512.001;" xml:space="preserve">
<g>
	<g>
		<g>
			<path d="M423.516,153.14h-22.893c-5.926,0-10.747,4.821-10.747,10.747v5.667l-49.976-0.013v-11.276
				c0-7.415-6.032-13.446-13.446-13.446h-2.502l-0.005-32.406c-0.003-10.433-6.608-19.795-16.435-23.297L268.494,75.21l0.969-2.717
				c1.898-5.33-0.894-11.209-6.22-13.106L98.29,0.595C97.181,0.2,96.023,0,94.848,0c-4.326,0-8.209,2.738-9.665,6.815l-6.844,19.2
				c-0.92,2.582-0.78,5.367,0.395,7.843c1.174,2.476,3.243,4.346,5.824,5.266l25.858,9.216c0.05,0.019,0.097,0.043,0.148,0.062
				c0.06,0.021,0.12,0.036,0.18,0.056l138.763,49.457c1.11,0.396,2.27,0.597,3.445,0.597c4.327,0,8.21-2.739,9.664-6.815l0.84-2.357
				l39.018,13.906c3.869,1.379,6.47,5.065,6.471,9.171l0.005,32.403h-1.242c-7.415,0-13.446,6.032-13.446,13.446v11.276h-2.996
				c-11.421,0-21.409,7.719-24.287,18.771L260.6,212.81c-8.498,1.454-14.994,8.854-14.994,17.76v205.938c0,4.142,3.358,7.5,7.5,7.5
				c4.142,0,7.5-3.358,7.5-7.5V230.569c0-1.675,1.363-3.038,3.039-3.038h106.871c1.675,0,3.039,1.363,3.039,3.038v16.375
				c0,4.142,3.358,7.5,7.5,7.5c4.142,0,7.5-3.358,7.5-7.5v-16.375c0-8.906-6.495-16.306-14.994-17.76l-1.118-4.295h17.432v5.667
				c0,5.926,4.821,10.747,10.747,10.747h22.893c5.926,0,10.747-4.821,10.747-10.747v-50.294
				C434.263,157.961,429.441,153.14,423.516,153.14z M108.539,31.747l-14.479-5.16l3.661-10.27l14.479,5.16L108.539,31.747z
				 M250.079,82.194L122.668,36.783l3.661-10.27L253.74,71.924L250.079,82.194z M309.262,159.819h15.637v9.722h-15.637V159.819z
				 M276.173,212.532l5.322-20.439c1.158-4.446,5.176-7.552,9.771-7.552l51.66,0.001c0.053,0.002,0.105,0.01,0.159,0.011
				c4.225,0.079,7.951,2.807,9.336,6.736c0.092,0.263,0.175,0.531,0.246,0.804l5.322,20.439H276.173z M389.875,193.513h-21.338
				v0.001l-1.355-5.202c-0.173-0.666-0.375-1.319-0.6-1.961c-0.119-0.341-0.261-0.668-0.394-1.001
				c-0.106-0.265-0.199-0.536-0.313-0.796h24V193.513z M419.262,209.929h-14.387v-8.915v-23.959v-8.915h14.387V209.929z"/>
			<path d="M381.055,269.511c-4.142,0-7.5,3.358-7.5,7.5v216.952c0,1.675-1.363,3.038-3.039,3.038h-106.87
				c-1.675,0-3.039-1.363-3.039-3.038v-27.429c0-4.142-3.358-7.5-7.5-7.5c-4.142,0-7.5,3.358-7.5,7.5v27.429
				c0,9.946,8.092,18.038,18.039,18.038h106.871c9.946,0,18.039-8.092,18.039-18.038V277.011
				C388.555,272.869,385.197,269.511,381.055,269.511z"/>
		</g>
	</g>
</g>
<g>
</g>
<g>
</g>
<g>
</g>
<g>
</g>
<g>
</g>
<g>
</g>
<g>
</g>
<g>
</g>
<g>
</g>
<g>
</g>
<g>
</g>
<g>
</g>
<g>
</g>
<g>
</g>
<g>
</g>
</svg>
