<?xml version='1.0' encoding='iso-8859-1'?>
<svg version="1.1" xmlns="http://www.w3.org/2000/svg" viewBox="0 0 295.82 295.82" xmlns:xlink="http://www.w3.org/1999/xlink" enable-background="new 0 0 295.82 295.82">
  <g>
    <g>
      <path d="M147.91,0C66.124,0,0,66.124,0,147.91s66.124,147.91,147.91,147.91s147.91-66.124,147.91-147.91S229.696,0,147.91,0z     M147.91,278.419c-71.345,0-130.509-59.164-130.509-130.509S76.565,17.401,147.91,17.401S278.419,76.565,278.419,147.91    S219.255,278.419,147.91,278.419z"/>
      <path d="m184.453,125.289l-46.983,46.983c0,1.74-1.74,1.74-3.48,1.74-1.74,0-1.74,0-3.48-1.74l-19.141-19.141c-3.48-3.48-8.701-3.48-12.181,0s-3.48,8.701 0,12.181l19.141,19.141c3.48,5.22 8.701,6.96 15.661,6.96 6.96,0 12.181-3.48 15.661-6.96l46.983-46.983c3.48-3.48 3.48-8.701 0-12.181-3.482-3.481-8.701-3.481-12.181,0z"/>
    </g>
  </g>
</svg>
