<?xml version='1.0' encoding='iso-8859-1'?>
<svg version="1.1" xmlns="http://www.w3.org/2000/svg" viewBox="0 0 295.821 295.821" xmlns:xlink="http://www.w3.org/1999/xlink" enable-background="new 0 0 295.821 295.821">
  <g>
    <path d="m279.119,175.752c-3.48-5.22-8.701-5.22-12.181-3.48l-29.791,16.392-71.449-41.119 69.936-40.249 29.565,16.253c0,1.74 1.74,1.74 3.48,1.74 3.48,0 6.96-1.74 6.96-3.48 1.74-5.22 0-10.441-3.48-12.181l-20.081-11.815 21.804-12.546c5.22-3.48 5.22-8.701 3.48-12.181-3.48-5.22-8.701-5.22-12.181-3.48l-22.622,13.014v-25.196c0-5.22-3.48-8.701-8.701-8.701-5.22,0-8.701,3.48-8.701,8.701v35.22l-69.605,40.058v-84.327l27.842-15.313c5.22-3.48 5.22-8.701 3.48-12.181-3.48-5.22-8.701-5.22-12.181-3.48l-19.141,11.259v-19.959c0-5.22-3.48-8.701-8.701-8.701-5.22,0-8.701,3.48-8.701,8.701v22.013l-22.621-13.312c-5.22-1.74-10.441,0-12.181,3.48-1.74,5.22 0,10.441 3.48,12.181l31.322,17.227v81.403l-69.603-40.058v-35.951c0-5.22-3.48-8.701-8.701-8.701s-8.701,3.48-8.701,8.701v25.945l-20.88-12.024c-5.22-1.74-10.441,0-12.181,3.48-1.74,5.22 0,10.441 3.48,12.181l19.437,11.189-19.437,11.433c-5.22,3.48-5.22,8.701-3.48,12.181 1.74,3.48 3.48,5.22 6.96,5.22 0,0 1.74,0 3.48-3.48l28.904-15.905 72.337,41.624-69.901,40.232-31.339-17.245c-5.22-1.74-10.441-1.74-12.181,3.48-1.74,5.221 0,10.441 3.48,12.181l21.16,12.442-17.663,10.196c-5.22,3.48-5.22,8.701-3.48,12.181 1.74,3.48 3.48,5.22 6.96,5.22 1.74,0 1.74,0 5.22-1.74l17.401-10.023v23.944c0,5.22 3.48,8.701 8.701,8.701s8.701-3.48 10.441-10.441v-33.219l69.605-40.058v82.325l-27.842,15.313c-5.22,3.48-5.22,8.701-3.48,12.181 3.48,5.22 8.701,5.22 12.181,3.48l19.141-11.259v21.699c0,5.22 3.48,8.701 8.701,8.701 5.22,0 8.701-3.48 8.701-8.701v-23.752l22.621,13.312c0,1.74 1.74,1.74 3.48,1.74 1.74,0 5.22-1.74 10.441-5.22 1.74-5.22 0-10.441-3.48-12.181l-33.062-18.184v-80.446l71.345,41.067v34.959c0,5.22 3.48,8.701 8.701,8.701s8.701-3.48 10.441-6.96v-25.684l17.401,10.023c0,1.74 1.74,1.74 3.48,1.74 3.48,0 6.96-1.74 8.701-5.22 1.74-5.22 0-10.441-3.48-12.181l-16.183-9.31 19.663-11.572c5.219-3.497 5.219-8.718 3.479-12.198z"/>
  </g>
</svg>
