<?xml version="1.0" encoding="iso-8859-1"?>
<!-- Generator: Adobe Illustrator 19.1.0, SVG Export Plug-In . SVG Version: 6.00 Build 0)  -->
<svg version="1.1" id="Capa_1" xmlns="http://www.w3.org/2000/svg" xmlns:xlink="http://www.w3.org/1999/xlink" x="0px" y="0px"
	 viewBox="0 0 470.544 470.544" style="enable-background:new 0 0 470.544 470.544;" xml:space="preserve">
<g>
	<g>
		<g>
			<path d="M363.602,213.883c59.887,0,106.942-47.055,106.942-106.942S423.489,0,363.602,0S256.66,47.055,256.66,106.942
				S303.715,213.883,363.602,213.883z M363.602,42.777c36.36,0,64.165,27.805,64.165,64.165s-27.805,64.165-64.165,64.165
				s-64.165-27.805-64.165-64.165S327.241,42.777,363.602,42.777z"/>
			<path d="M106.942,256.66C47.055,256.66,0,303.715,0,363.602s47.055,106.942,106.942,106.942s106.942-47.055,106.942-106.942
				S166.829,256.66,106.942,256.66L106.942,256.66z M106.942,427.767c-36.36,0-64.165-27.805-64.165-64.165
				s27.805-64.165,64.165-64.165s64.165,27.805,64.165,64.165C171.107,397.822,143.302,427.767,106.942,427.767z"/>
			<path d="M363.602,256.66c-59.887,0-106.942,47.055-106.942,106.942s47.055,106.942,106.942,106.942
				s106.942-47.055,106.942-106.942S423.489,256.66,363.602,256.66L363.602,256.66z M363.602,427.767
				c-36.36,0-64.165-27.805-64.165-64.165s27.805-64.165,64.165-64.165s64.165,27.805,64.165,64.165
				C427.767,397.822,399.962,427.767,363.602,427.767z"/>
			<path d="M106.942,0C47.055,0,0,47.055,0,106.942s47.055,106.942,106.942,106.942s106.942-47.055,106.942-106.942
				S166.829,0,106.942,0z M106.942,171.107c-36.36,0-64.165-27.805-64.165-64.165s27.805-64.165,64.165-64.165
				s64.165,27.805,64.165,64.165S143.302,171.107,106.942,171.107z"/>
		</g>
	</g>
</g>
<g>
</g>
<g>
</g>
<g>
</g>
<g>
</g>
<g>
</g>
<g>
</g>
<g>
</g>
<g>
</g>
<g>
</g>
<g>
</g>
<g>
</g>
<g>
</g>
<g>
</g>
<g>
</g>
<g>
</g>
</svg>
