<?xml version="1.0" encoding="iso-8859-1"?>
<!-- Generator: Adobe Illustrator 18.0.0, SVG Export Plug-In . SVG Version: 6.00 Build 0)  -->
<!DOCTYPE svg PUBLIC "-//W3C//DTD SVG 1.1//EN" "http://www.w3.org/Graphics/SVG/1.1/DTD/svg11.dtd">
<svg version="1.1" id="Capa_1" xmlns="http://www.w3.org/2000/svg" xmlns:xlink="http://www.w3.org/1999/xlink" x="0px" y="0px"
	 viewBox="0 0 293.657 293.657" style="enable-background:new 0 0 293.657 293.657;" xml:space="preserve">
<path d="M293.304,291.141l-92.253-111.539l78.765-29.048c1.561-0.575,2.597-2.063,2.597-3.726s-1.036-3.15-2.597-3.726
	l-78.766-29.049L293.302,2.516c0.506-0.611,0.463-1.506-0.097-2.066c-0.561-0.56-1.455-0.602-2.066-0.097L179.601,92.605
	l-29.048-78.764c-0.575-1.56-2.063-2.597-3.726-2.597s-3.15,1.036-3.726,2.597l-29.048,78.764L2.516,0.353
	C1.904-0.153,1.01-0.11,0.45,0.45C-0.11,1.01-0.152,1.905,0.352,2.516l92.254,111.539L13.84,143.103
	c-1.561,0.575-2.597,2.063-2.597,3.726s1.036,3.15,2.597,3.726l78.766,29.048L0.352,291.139c-0.505,0.611-0.463,1.506,0.098,2.065
	c0.561,0.56,1.455,0.602,2.065,0.098l111.538-92.252l29.049,78.767c0.575,1.56,2.063,2.597,3.726,2.597s3.15-1.036,3.726-2.597
	l29.048-78.766l111.539,92.252c0.611,0.506,1.506,0.463,2.066-0.097C293.767,292.646,293.809,291.752,293.304,291.141z"/>
<g>
</g>
<g>
</g>
<g>
</g>
<g>
</g>
<g>
</g>
<g>
</g>
<g>
</g>
<g>
</g>
<g>
</g>
<g>
</g>
<g>
</g>
<g>
</g>
<g>
</g>
<g>
</g>
<g>
</g>
</svg>
