<?xml version="1.0" encoding="iso-8859-1"?>
<!-- Generator: Adobe Illustrator 16.0.0, SVG Export Plug-In . SVG Version: 6.00 Build 0)  -->
<!DOCTYPE svg PUBLIC "-//W3C//DTD SVG 1.1//EN" "http://www.w3.org/Graphics/SVG/1.1/DTD/svg11.dtd">
<svg version="1.1" id="Capa_1" xmlns="http://www.w3.org/2000/svg" xmlns:xlink="http://www.w3.org/1999/xlink" x="0px" y="0px"
	 width="65.438px" height="65.438px" viewBox="0 0 65.438 65.438" style="enable-background:new 0 0 65.438 65.438;"
	 xml:space="preserve">
<g>
	<g>
		<g>
			<path d="M32.342,64.806c-16.447,0-29.828-13.381-29.828-29.826c0-16.446,13.381-29.827,29.828-29.827
				c16.446,0,29.827,13.381,29.827,29.827C62.169,51.426,48.788,64.806,32.342,64.806z M32.342,9.153
				c-14.241,0-25.828,11.586-25.828,25.827c0,14.24,11.587,25.826,25.828,25.826c14.241,0,25.827-11.586,25.827-25.826
				C58.169,20.739,46.583,9.153,32.342,9.153z"/>
		</g>
		<g>
			<path d="M21.756,54.691c-0.167,0-0.337-0.041-0.492-0.13C14.222,50.568,9.848,43.063,9.848,34.979c0-0.553,0.447-1,1-1
				c0.553,0,1,0.447,1,1c0,7.365,3.986,14.201,10.402,17.843c0.48,0.271,0.649,0.883,0.377,1.362
				C22.443,54.51,22.105,54.691,21.756,54.691z"/>
		</g>
		<g>
			<path d="M30.383,57.386c-0.03,0-0.06-0.002-0.091-0.004c-0.433-0.039-0.86-0.09-1.284-0.154c-0.547-0.082-0.923-0.59-0.842-1.137
				c0.082-0.545,0.59-0.916,1.137-0.842c0.387,0.059,0.775,0.104,1.169,0.141c0.55,0.049,0.955,0.535,0.906,1.086
				C31.331,56.996,30.895,57.386,30.383,57.386z"/>
		</g>
		<g>
			<path d="M7.866,21.521c-0.369,0-0.743-0.102-1.077-0.315c-3.322-2.129-5.306-5.753-5.306-9.696C1.483,5.163,6.647,0,12.994,0
				c4.637,0,8.799,2.759,10.604,7.027c0.431,1.018-0.045,2.191-1.063,2.621c-1.021,0.43-2.191-0.046-2.621-1.063
				c-1.179-2.786-3.896-4.586-6.921-4.586c-4.142,0-7.511,3.369-7.511,7.51c0,2.573,1.295,4.938,3.464,6.327
				c0.93,0.596,1.201,1.833,0.605,2.764C9.171,21.196,8.526,21.521,7.866,21.521z"/>
		</g>
		<g>
			<path d="M57.574,21.521c-0.659,0-1.306-0.325-1.687-0.921c-0.597-0.931-0.324-2.168,0.604-2.764
				c2.169-1.389,3.464-3.754,3.464-6.327c0-4.141-3.369-7.51-7.511-7.51c-3.024,0-5.742,1.8-6.921,4.586
				c-0.43,1.017-1.604,1.493-2.621,1.063c-1.018-0.43-1.493-1.604-1.062-2.621C43.646,2.758,47.808,0,52.444,0
				c6.347,0,11.511,5.163,11.511,11.51c0,3.943-1.983,7.567-5.306,9.696C58.317,21.42,57.943,21.521,57.574,21.521z"/>
		</g>
		<g>
			<path d="M11.262,65.438c-0.423,0-0.85-0.135-1.212-0.411c-0.878-0.67-1.046-1.927-0.375-2.804l4.381-5.731
				c0.67-0.879,1.924-1.049,2.803-0.375c0.878,0.67,1.046,1.926,0.375,2.803l-4.381,5.732
				C12.459,65.168,11.865,65.438,11.262,65.438z"/>
		</g>
		<g>
			<path d="M52.755,65.438c-0.604,0-1.197-0.271-1.592-0.786l-4.381-5.732c-0.671-0.877-0.503-2.133,0.375-2.803
				c0.878-0.674,2.132-0.504,2.803,0.375l4.381,5.731c0.672,0.877,0.504,2.134-0.375,2.804
				C53.604,65.304,53.177,65.438,52.755,65.438z"/>
		</g>
		<g>
			<path d="M38.019,43.222c-0.516,0-1.03-0.198-1.422-0.594l-5.396-5.761c-0.371-0.373-0.276-0.879-0.276-1.405V19.648
				c0-1.104,0.896-2,2-2s2,0.896,2,2V34.64l4.817,5.177c0.774,0.784,0.618,2.051-0.167,2.827
				C39.185,43.029,38.526,43.222,38.019,43.222z"/>
		</g>
	</g>
</g>
<g>
</g>
<g>
</g>
<g>
</g>
<g>
</g>
<g>
</g>
<g>
</g>
<g>
</g>
<g>
</g>
<g>
</g>
<g>
</g>
<g>
</g>
<g>
</g>
<g>
</g>
<g>
</g>
<g>
</g>
</svg>
